<svg width="32" height="29" viewBox="0 0 32 29" fill="none" xmlns="http://www.w3.org/2000/svg">
<path fill-rule="evenodd" clip-rule="evenodd" d="M9.07183 8.00001C12.151 2.66667 13.6906 0 16 0C18.3094 0 19.849 2.66667 22.9282 8L28.1244 17L28.1244 17C31.2036 22.3333 32.7432 25 31.5885 27C30.4338 29 27.3546 29 21.1962 29H10.8039C4.64548 29 1.56628 29 0.411577 27C-0.743124 25 0.796478 22.3333 3.87568 17L9.07183 8.00001ZM18 23C18 24.1046 17.1046 25 16 25C14.8955 25 14 24.1046 14 23C14 21.8954 14.8955 21 16 21C17.1046 21 18 21.8954 18 23ZM16 7C14.926 7 14.0839 7.9222 14.1811 8.99179L14.9095 17.0041C14.9608 17.5681 15.4337 18 16 18C16.5664 18 17.0393 17.5681 17.0906 17.0041L17.819 8.99179C17.9162 7.9222 17.074 7 16 7Z" fill="black"/>
</svg>
