<svg width="20" height="14" viewBox="0 0 20 14" fill="none" xmlns="http://www.w3.org/2000/svg">
<path fill-rule="evenodd" clip-rule="evenodd" d="M7.49753 7.00048C7.51008 7.68775 7.77898 8.34242 8.24644 8.8238C8.71391 9.30518 9.34262 9.57485 9.99748 9.57485C10.6523 9.57485 11.281 9.30518 11.7485 8.8238C12.216 8.34242 12.4849 7.68775 12.4974 7.00048V6.97881C12.3481 7.13796 12.1673 7.26087 11.9679 7.33895C11.7685 7.41702 11.5552 7.44836 11.3431 7.43076C11.1309 7.41317 10.925 7.34707 10.7397 7.23709C10.5545 7.12712 10.3944 6.97594 10.2707 6.79415C10.1469 6.61236 10.0626 6.40437 10.0236 6.18475C9.98457 5.96514 9.99178 5.73922 10.0447 5.52284C10.0977 5.30646 10.1951 5.10486 10.3301 4.93217C10.4651 4.75948 10.6345 4.61989 10.8264 4.52318C10.5608 4.42506 10.2813 4.37523 9.99977 4.37584C9.33645 4.37584 8.70028 4.6523 8.23107 5.14446C7.76186 5.63662 7.49802 6.30421 7.49753 7.00048ZM19.4418 5.50784C17.8909 3.43741 14.1157 0 10.0021 0C5.8884 0 2.105 3.43981 0.554116 5.50784C0.204124 5.98019 0.012385 6.49202 0 7.00048C0.012385 7.50798 0.204124 8.01981 0.554116 8.49312C2.105 10.5636 5.8806 14 9.99977 14C14.1189 14 17.8895 10.5636 19.4418 8.49312C19.7959 8.02077 19.9876 7.50894 20 7.00048C19.9876 6.49298 19.7959 5.98115 19.4418 5.50784ZM9.99977 11.3749C9.17549 11.3752 8.36964 11.1189 7.68415 10.6384C6.99865 10.1579 6.4643 9.47478 6.14867 8.67549C5.83305 7.8762 5.75032 6.99661 5.91096 6.14796C6.07161 5.29932 6.4684 4.51974 7.05116 3.90783C7.63391 3.29591 8.37646 2.87915 9.18488 2.71024C9.9933 2.54134 10.8313 2.62788 11.5928 2.95893C12.3544 3.28997 13.0053 3.85065 13.4633 4.57005C13.9213 5.28944 14.1657 6.13525 14.1657 7.00048C14.1654 8.16028 13.7264 9.27248 12.9452 10.0927C12.1641 10.9129 11.1047 11.3741 9.99977 11.3749Z" fill="#010101"/>
</svg>
