<svg width="28" height="12" viewBox="0 0 28 12" fill="none" xmlns="http://www.w3.org/2000/svg">
<path fill-rule="evenodd" clip-rule="evenodd" d="M1.16667 6C0.522334 6 0 5.46274 0 4.8C0 4.13726 0.522334 3.6 1.16667 3.6H1.65205C2.5522 1.48091 4.60796 0 7 0C9.12847 0 10.9907 1.17254 12.0094 2.92389C12.5819 2.58965 13.2726 2.4 14 2.4C14.7274 2.4 15.4181 2.58965 15.9906 2.92389C17.0093 1.17254 18.8715 0 21 0C23.392 0 25.4478 1.48091 26.3479 3.6H26.8333C27.4777 3.6 28 4.13726 28 4.8C28 5.46274 27.4777 6 26.8333 6C26.8333 9.31371 24.2217 12 21 12C17.7783 12 15.1667 9.31371 15.1667 6C15.1667 5.7975 15.1764 5.59734 15.1955 5.4H15.1667C15.1667 5.15589 14.7053 4.8 14 4.8C13.2947 4.8 12.8333 5.15589 12.8333 5.4H12.8045C12.8236 5.59734 12.8333 5.7975 12.8333 6C12.8333 9.31371 10.2217 12 7 12C3.77834 12 1.16667 9.31371 1.16667 6ZM7 9.6C8.933 9.6 10.5 7.98823 10.5 6C10.5 4.01178 8.933 2.4 7 2.4C5.067 2.4 3.5 4.01178 3.5 6C3.5 7.98823 5.067 9.6 7 9.6ZM21 9.6C22.933 9.6 24.5 7.98823 24.5 6C24.5 4.01178 22.933 2.4 21 2.4C19.067 2.4 17.5 4.01178 17.5 6C17.5 7.98823 19.067 9.6 21 9.6Z" fill="white"/>
</svg>
