<svg width="20" height="21" viewBox="0 0 20 21" fill="none" xmlns="http://www.w3.org/2000/svg">
<path fill-rule="evenodd" clip-rule="evenodd" d="M14.1532 0.600098C15.8468 0.600098 17.3387 1.16461 18.3871 2.25332C19.4355 3.30171 20 4.75332 20 6.44687V14.7533C20 16.4872 19.4355 17.9791 18.3468 19.0275C17.2984 20.0356 15.8468 20.6001 14.1129 20.6001H5.8871C4.23387 20.6001 2.78226 20.0759 1.69355 19.0275C0.564516 17.9388 0 16.4469 0 14.713V6.44687C0 2.93881 2.33871 0.600098 5.84678 0.600098H14.1532ZM17.0565 17.6969C17.7823 17.0114 18.2258 16.0033 18.2258 14.7533V6.44687C18.2258 5.27752 17.8226 4.26945 17.1371 3.54365C16.4113 2.81784 15.4032 2.45494 14.1935 2.45494H5.8871C4.67742 2.45494 3.62903 2.81784 2.94355 3.50332C2.21774 4.22913 1.85484 5.23719 1.85484 6.44687V14.713C1.85484 15.963 2.21774 16.9711 2.94355 17.6969C3.66936 18.3824 4.67742 18.7453 5.8871 18.7453H14.1129C15.3226 18.7453 16.3306 18.3824 17.0565 17.6969ZM15.3629 6.44705C16.0087 6.44705 16.5322 5.92351 16.5322 5.2777C16.5322 4.63188 16.0087 4.10834 15.3629 4.10834C14.717 4.10834 14.1935 4.63188 14.1935 5.2777C14.1935 5.92351 14.717 6.44705 15.3629 6.44705ZM9.99993 5.3986C7.17735 5.3986 4.83863 7.69699 4.83863 10.5599C4.83863 13.4228 7.13702 15.7212 9.99993 15.7212C12.8628 15.7212 15.1612 13.3825 15.1612 10.5599C15.1612 7.73731 12.8225 5.3986 9.99993 5.3986ZM9.99993 13.8663C8.18541 13.8663 6.69347 12.3744 6.69347 10.5599C6.69347 8.74537 8.18541 7.25344 9.99993 7.25344C11.8144 7.25344 13.3064 8.74537 13.3064 10.5599C13.3064 12.3744 11.8144 13.8663 9.99993 13.8663Z" fill="#333333"/>
</svg>
