<svg width="36" height="24" viewBox="0 0 36 24" fill="none" xmlns="http://www.w3.org/2000/svg">
<path fill-rule="evenodd" clip-rule="evenodd" d="M9.06436 0.428711H5.46434C2.44289 0.428711 1.52588e-05 2.87158 1.52588e-05 5.82875V13.5431C1.52588e-05 14.1217 0.450018 14.5717 0.964308 14.5717H3.08575C4.17862 14.5717 5.14291 13.6717 5.14291 12.5145V7.69305C5.14291 7.24304 5.52863 6.85733 5.97863 6.85733H6.87863C7.32864 6.85733 7.71435 7.24304 7.71435 7.69305V12.5145C7.71435 15.086 5.6572 17.1431 3.08575 17.1431H0.964308C0.450018 17.1431 1.52588e-05 17.5931 1.52588e-05 18.1074V22.3503C1.52588e-05 22.9932 0.578591 23.5717 1.22145 23.5717H4.82148C7.84293 23.5717 10.2215 21.1289 10.2215 18.1717V1.65015C10.2858 1.00729 9.70723 0.428711 9.06436 0.428711ZM21.9216 0.428711H18.3216C15.3001 0.428711 12.9215 2.87158 12.9215 5.82875V7.75733C12.9215 8.07876 13.243 8.20734 13.5001 8.01448C14.4001 7.24304 15.5573 6.85733 16.7787 6.85733H19.7359C20.2502 6.85733 20.6359 7.24304 20.6359 7.75733V8.52877C20.6359 9.04306 20.2502 9.42877 19.7359 9.42877H16.9073C15.5573 9.42877 14.3358 10.3931 14.2073 11.7431C14.0144 13.2859 15.2358 14.5717 16.7144 14.5717H19.6716C20.1859 14.5717 20.5716 14.9574 20.5716 15.4717V16.2431C20.5716 16.7574 20.1859 17.1431 19.6716 17.1431H16.7144C15.493 17.1431 14.3358 16.6931 13.4358 15.986C13.1787 15.7931 12.8572 15.9217 12.8572 16.2431V22.3503C12.8572 23.0574 13.4358 23.5717 14.0787 23.5717H17.6787C20.7002 23.5717 23.0787 21.1289 23.0787 18.1717V1.65015C23.143 1.00729 22.5645 0.428711 21.9216 0.428711ZM31.1786 0.428711H34.7786C35.4214 0.428711 36 1.00729 36 1.65015V18.0431C36 21.0003 33.6214 23.4432 30.6 23.4432H27C26.3571 23.4432 25.7785 22.9289 25.7785 22.2217V17.786C25.7785 17.4003 26.0999 17.0788 26.4857 17.0788H30.0857C31.7571 17.0788 33.1714 15.9217 33.4286 14.3145C33.4929 13.4788 33.3 12.7717 32.9143 12.1288C32.85 12.0002 32.85 11.8716 32.9143 11.7431C33.3643 11.1002 33.5571 10.3931 33.4286 9.55735C33.1714 7.95019 31.6928 6.79304 30.0857 6.79304H26.4857C26.0999 6.79304 25.7785 6.47161 25.7785 6.08589V5.82875C25.7785 2.87158 28.1571 0.428711 31.1786 0.428711ZM30.2145 13.2859H26.3573C25.9716 13.2859 25.7145 13.5431 25.7145 13.9288C25.7145 14.3145 25.9716 14.5717 26.3573 14.5717H30.2145C30.6002 14.5717 30.8574 14.3145 30.8574 13.9288C30.8574 13.5431 30.6002 13.2859 30.2145 13.2859ZM26.3573 9.42877H30.2145C30.6002 9.42877 30.8574 9.68592 30.8574 10.0716C30.8574 10.4574 30.6002 10.7145 30.2145 10.7145H26.3573C25.9716 10.7145 25.7145 10.4574 25.7145 10.0716C25.7145 9.68592 25.9716 9.42877 26.3573 9.42877Z" fill="#9F9F9E"/>
</svg>
