<svg width="15" height="12" viewBox="0 0 15 12" fill="none" xmlns="http://www.w3.org/2000/svg">
<path d="M8.01686 6.04509C7.87904 6.16947 7.7 6.23832 7.51436 6.23832C7.32871 6.23832 7.14967 6.16947 7.01186 6.04509L0.651855 0.262504C0.901423 0.091545 1.19685 4.01555e-05 1.49936 0H13.4994C13.8019 4.01555e-05 14.0973 0.091545 14.3469 0.262504L8.01686 6.04509Z" fill="black"/>
<path d="M15 1.69482V9.74994C15 10.3467 14.7629 10.919 14.341 11.341C13.919 11.7629 13.3467 12 12.75 12H2.25C1.65326 12 1.08097 11.7629 0.65901 11.341C0.237053 10.919 0 10.3467 0 9.74994V1.69482L6.51 7.63491C6.78454 7.87337 7.13636 8.00397 7.5 8.00242C7.86817 8.00166 8.22321 7.86551 8.4975 7.61991L15 1.69482Z" fill="black"/>
</svg>
