<svg width="97" height="24" viewBox="0 0 97 24" fill="none" xmlns="http://www.w3.org/2000/svg">
<path fill-rule="evenodd" clip-rule="evenodd" d="M7.73249 11.8095L11.3391 0.286638H15.2918V0.659269H13.4453V14.5326H15.2918V14.8766H9.80987V14.5326H11.6275V0.802589L7.12661 15.1345H6.95345L2.2216 0.7166V12.0388C2.2216 12.7841 2.3081 13.3574 2.45239 13.7587C2.59661 14.1313 2.97177 14.3893 3.57773 14.4753C3.77967 14.4753 3.92389 14.4753 4.03925 14.5039H4.18362V14.8766H0V14.5326C0.836601 14.5039 1.3272 14.2746 1.50028 13.8733C1.67343 13.472 1.76001 12.8987 1.76001 12.1535V0.659269H0V0.286638H4.03925L7.73249 11.8095ZM18.2925 0.659269H16.5324V0.286638H22.5339H22.88H23.3705C24.8997 0.286638 26.3424 0.859913 27.6697 1.97781C28.9969 3.0957 29.6604 4.95885 29.6027 7.59596C29.6315 8.71386 29.4585 9.83168 29.0834 10.9209C28.7083 12.0102 27.987 12.9274 26.9194 13.7013C25.8519 14.4753 24.3804 14.8479 22.4761 14.8479H16.5324V14.5039H18.2925V0.659269ZM20.1968 14.5326H22.5049C25.7653 14.5326 27.4388 12.2395 27.4677 7.62461C27.4965 5.84743 27.2657 4.4429 26.7752 3.38234C26.2847 2.35044 25.6499 1.63384 24.8709 1.23255C24.0919 0.831255 23.3129 0.659269 22.4761 0.687935H20.168V14.5326H20.1968ZM41.5766 4.5289H41.2014C41.0283 3.497 40.6245 2.52242 40.0186 1.60518C39.4126 0.687935 38.4316 0.257974 37.0756 0.315303C35.3733 0.401294 34.2768 1.23254 33.7863 2.80906C33.2958 4.38558 33.065 6.01942 33.1228 7.68192C33.1516 10.5483 33.6421 12.4402 34.5365 13.386C35.431 14.3319 36.3831 14.8192 37.393 14.8192C38.4028 14.8192 39.326 14.3893 40.1627 13.5581C40.9995 12.7267 41.5766 11.5802 41.8363 10.1757H42.2402L42.1537 14.8766H41.7785C41.7497 14.5613 41.5477 14.3319 41.1726 14.2173C40.9418 14.1886 40.6245 14.2746 40.2205 14.5039C39.3838 14.9339 38.4316 15.1632 37.393 15.1632C35.2579 15.1632 33.6709 14.4179 32.6322 13.0134C31.5936 11.5802 31.0454 9.88906 31.0165 7.93992C31.0165 6.5067 31.2761 5.21683 31.7666 4.01295C32.286 2.80906 33.0074 1.86316 33.9307 1.14655C34.8539 0.429957 35.9503 0.0573274 37.1622 0C37.8258 0 38.3739 0.0573274 38.7778 0.200647C39.124 0.343967 39.4992 0.487283 39.9031 0.630604C40.1339 0.745258 40.3359 0.773924 40.5379 0.745258C40.8841 0.630604 41.0573 0.401294 41.0573 0H41.4035L41.5766 4.5289ZM59.0852 4.50931H58.725C58.5614 3.4889 58.1685 2.50149 57.5791 1.57987C56.9898 0.65825 56.0075 0.230384 54.6978 0.296183C53.0279 0.362068 51.9802 1.2178 51.4891 2.76485C50.998 4.34472 50.8015 5.95758 50.8343 7.60333C50.867 10.434 51.3254 12.343 52.2094 13.2975C53.0934 14.2521 54.0102 14.7129 55.0252 14.7129C56.0075 14.7129 56.9243 14.285 57.7428 13.4621C58.5614 12.6064 59.1179 11.4873 59.3799 10.1048H59.7728L59.6418 14.7787H59.2817C59.2489 14.4496 59.0524 14.2191 58.6923 14.1205C58.4631 14.0876 58.1685 14.1862 57.7756 14.4166C56.957 14.8446 56.0402 15.075 54.9924 15.075C52.897 15.075 51.3582 14.3508 50.3431 12.9355C49.2954 11.4873 48.7716 9.80863 48.7388 7.86661C48.7388 6.45124 49.0007 5.16764 49.4919 3.98265C49.983 2.79775 50.7033 1.84324 51.5873 1.1191C52.5041 0.394968 53.5518 0.0328996 54.7305 0C55.3854 0 55.9092 0.0657995 56.3021 0.197484C56.6623 0.329082 57.0224 0.460767 57.3827 0.62535C57.6118 0.724135 57.8082 0.789934 58.0047 0.757034C58.3321 0.658249 58.4959 0.394967 58.4959 0H58.8233L59.0852 4.50931ZM62.7195 14.4825V0.493667H61.2789V0.197484H64.2257V14.4825H65.699V14.8117H61.2789V14.4825H62.7195ZM68.4166 14.4825V5.99047H66.976V5.66131H69.9227V14.5154H71.3961V14.8446H67.0087V14.5154C67.0087 14.4825 68.4166 14.4825 68.4166 14.4825ZM67.9254 1.81025C67.9254 1.51407 68.0237 1.2507 68.2202 1.05322C68.4166 0.855734 68.6785 0.757034 68.9405 0.757034C69.2351 0.757034 69.4643 0.855733 69.628 1.08612C69.8245 1.28369 69.8899 1.54697 69.8899 1.84324C69.8899 2.10652 69.7917 2.3369 69.5953 2.53439C69.3988 2.73187 69.1696 2.86355 68.9077 2.86355C68.6458 2.86355 68.4166 2.76485 68.1874 2.56729C68.0564 2.3369 67.9254 2.07362 67.9254 1.81025ZM75.7835 14.4825H77.2568V14.8117H72.8367V14.4825H74.2774V5.99047H72.8367V5.66131H75.7835V7.27416C76.0126 6.74751 76.3728 6.31964 76.8312 5.95757C77.2896 5.59551 77.8135 5.39802 78.3373 5.39802C78.9921 5.39802 79.5487 5.59551 80.0071 6.02337C80.4655 6.45124 80.7275 6.97789 80.8257 7.60333C80.8911 8.03115 80.8911 8.72227 80.8911 9.61075V9.61106V14.4825H82.3318V14.8117H77.9444V14.4825H79.4178V8.49196C79.4178 7.60333 79.3523 6.97789 79.2541 6.55002C79.1558 6.15506 78.8284 5.89169 78.3373 5.79299C77.7807 5.66131 77.2241 5.92467 76.6348 6.51712C76.0781 7.10958 75.7835 8.09699 75.7835 9.41358V14.4825ZM85.2458 14.4825V5.99047H83.8052V5.66131H86.752V14.5154H88.2581V14.8446H83.8379V14.5154C83.8379 14.4825 85.2458 14.4825 85.2458 14.4825ZM84.7547 1.81025C84.7547 1.51407 84.8529 1.2507 85.0494 1.05322C85.2458 0.855734 85.5078 0.757034 85.7697 0.757034C86.0643 0.757034 86.2936 0.855733 86.4572 1.08612C86.6537 1.28369 86.7192 1.54697 86.7192 1.84324C86.7192 2.10652 86.621 2.3369 86.4245 2.53439C86.2281 2.73187 85.9988 2.86355 85.7369 2.86355C85.475 2.86355 85.2458 2.76485 85.0166 2.56729C84.8856 2.3369 84.7547 2.07362 84.7547 1.81025ZM96.7054 11.1581H97.0001C96.6399 13.8242 95.494 15.1079 93.5622 15.075C92.8091 15.0421 92.1543 14.8446 91.565 14.4166C90.9756 14.0217 90.5172 13.4621 90.1571 12.738C89.7969 12.0138 89.666 11.191 89.666 10.2365C89.666 9.21609 89.8951 8.36036 90.288 7.60333C90.6809 6.84629 91.2047 6.28674 91.8596 5.89169C92.5144 5.49672 93.1694 5.33214 93.857 5.36512C94.5445 5.36512 95.1338 5.56261 95.5595 5.95757C95.9851 6.35254 96.2144 6.81331 96.2471 7.37286C96.2471 7.70202 96.1816 7.96539 96.0179 8.22867C95.8542 8.45906 95.6249 8.59074 95.3302 8.59074C95.0356 8.62364 94.8064 8.52494 94.6427 8.36036C94.4789 8.19578 94.3808 7.93241 94.4134 7.57034C94.4134 7.47164 94.4789 7.27416 94.6754 6.97789C94.7737 6.84629 94.8391 6.78041 94.8718 6.74751C94.9701 6.68171 95.0356 6.58292 95.0356 6.41834C95.0356 6.22086 94.9046 6.05627 94.6754 5.89169C94.4135 5.72719 94.1189 5.66131 93.726 5.69421C93.1694 5.69421 92.6454 5.99047 92.1543 6.61582C91.6631 7.24126 91.434 8.45906 91.434 10.2365C91.434 11.586 91.565 12.6722 91.8596 13.4621C92.1543 14.2521 92.7109 14.7129 93.595 14.8117C95.3302 14.8775 96.378 13.6925 96.7054 11.1581ZM1.60051 19.2292L1.08297 22.8599H1.4346L1.78871 20.2436L3.09371 22.8599H3.18533L4.473 20.2633L4.82958 22.8599H5.18864L4.66615 19.2292H4.60672L3.14076 22.2083L1.65994 19.2292H1.60051ZM8.07026 21.9684L8.36247 22.1214C8.26672 22.309 8.15611 22.4603 8.03065 22.5755C7.90517 22.6907 7.76403 22.7787 7.6072 22.8396C7.45036 22.8989 7.2729 22.9285 7.07479 22.9285C6.63567 22.9285 6.29229 22.7853 6.04466 22.499C5.79703 22.211 5.67323 21.886 5.67323 21.5241C5.67323 21.1834 5.77805 20.8798 5.98771 20.6133C6.2535 20.2743 6.60926 20.1048 7.05499 20.1048C7.51392 20.1048 7.88041 20.2785 8.15446 20.6256C8.34925 20.8708 8.44831 21.1768 8.45161 21.5438H6.02981C6.03641 21.8565 6.13628 22.1131 6.32944 22.3138C6.52259 22.513 6.76113 22.6125 7.04508 22.6125C7.1821 22.6125 7.31499 22.5886 7.44376 22.541C7.57418 22.4933 7.68479 22.4299 7.77558 22.3509C7.86638 22.2719 7.96461 22.1444 8.07026 21.9684ZM8.07026 21.2451C8.02404 21.0608 7.95635 20.9136 7.86721 20.8034C7.77971 20.6931 7.66333 20.6042 7.51806 20.5367C7.37278 20.4693 7.22007 20.4356 7.05994 20.4356C6.7958 20.4356 6.56881 20.5203 6.37896 20.6898C6.24029 20.8132 6.13546 20.9983 6.06448 21.2451H8.07026ZM10.112 20.1741L9.07195 22.5657H8.74507V23.2174H9.0868V22.8596H11.3155V23.2026H11.6498V22.5657H11.3254L10.2928 20.1741H10.112ZM9.40872 22.5657L10.1962 20.7072L10.9515 22.5657H9.40872ZM12.4156 20.1741V22.161L14.3942 20.1741H14.4214V22.8596H14.0747V20.8899L12.1109 22.8596H12.0689V20.1741H12.4156ZM15.1439 22.8596H17.6623V23.284H17.9892V22.5337H17.4073V20.1741H17.0581V22.5337H15.4931V20.1741H15.1439V22.8596ZM18.7527 20.1741V22.161L20.7313 20.1741H20.7585V22.8596H20.4118V20.8899L18.4482 22.8596H18.406V20.1741H18.7527ZM21.8293 21.5661H23.3944V22.8596H23.741V20.1741H23.3944V21.2404H21.8293V20.1741H21.4802V22.8596H21.8293V21.5661ZM27.0808 20.7318L26.8059 20.902C26.5682 20.5878 26.2438 20.4306 25.8328 20.4306C25.5042 20.4306 25.231 20.5359 25.0131 20.7466C24.7968 20.9572 24.6887 21.2131 24.6887 21.5142C24.6887 21.71 24.7383 21.8943 24.8372 22.067C24.938 22.2399 25.075 22.374 25.2483 22.4694C25.4234 22.5648 25.6189 22.6125 25.8352 22.6125C26.2314 22.6125 26.555 22.4554 26.8059 22.1411L27.0808 22.3213C26.952 22.5138 26.7787 22.6635 26.5608 22.7705C26.3446 22.8758 26.0977 22.9285 25.8203 22.9285C25.3944 22.9285 25.0411 22.7935 24.7605 22.5237C24.4799 22.2538 24.3395 21.9255 24.3395 21.5388C24.3395 21.2789 24.4047 21.0378 24.5352 20.8157C24.6673 20.5919 24.848 20.4175 25.0775 20.2924C25.307 20.1674 25.5637 20.1048 25.8476 20.1048C26.0258 20.1048 26.1976 20.132 26.3627 20.1863C26.5294 20.2406 26.6705 20.3113 26.7861 20.3985C26.9017 20.4858 26.9999 20.5969 27.0808 20.7318ZM28.0479 20.1741H27.6987V22.8596H28.0479V21.7143L28.1569 21.618L29.395 22.8596H29.8853L28.4119 21.4032L29.7763 20.1741H29.2934L28.0479 21.3046V20.1741ZM30.5394 20.1741V22.161L32.518 20.1741H32.5452V22.8596H32.1985V20.8899L30.2349 22.8596H30.1927V20.1741H30.5394ZM33.6143 22.1609V20.174H33.2677V22.8595H33.3098L35.2735 20.8898V22.8595H35.6202V20.174H35.5929L33.6143 22.1609ZM33.8941 19.0955H33.5672C33.6086 19.2468 33.7059 19.3718 33.8595 19.4706C34.013 19.5677 34.2111 19.6162 34.4538 19.6162C34.6981 19.6162 34.8945 19.5669 35.0432 19.4681C35.1933 19.3678 35.2866 19.2435 35.323 19.0955H35.0061C34.9334 19.1908 34.8566 19.2574 34.7758 19.2954C34.6948 19.3332 34.5884 19.3521 34.4563 19.3521C34.3258 19.3521 34.2136 19.3307 34.1195 19.2879C34.0254 19.2452 33.9503 19.181 33.8941 19.0955ZM37.7204 22.5657L38.7605 20.1741H38.9412L39.9739 22.5657H40.2982V23.2026H39.9639V22.8596H37.7352V23.2174H37.3935V22.5657H37.7204ZM38.8446 20.7072L38.0571 22.5657H39.5999L38.8446 20.7072ZM41.064 22.161V20.1741H40.7173V22.8596H40.7595L42.7231 20.8899V22.8596H43.0698V20.1741H43.0426L41.064 22.161ZM46.4765 20.1739V22.8594H46.1348V22.3978C45.9896 22.5739 45.8261 22.7063 45.6445 22.7952C45.4646 22.884 45.2673 22.9285 45.0527 22.9285C44.6713 22.9285 44.3452 22.7911 44.0745 22.5163C43.8054 22.2399 43.6709 21.9041 43.6709 21.5093C43.6709 21.1226 43.8071 20.7918 44.0795 20.517C44.3519 20.2422 44.6796 20.1048 45.0626 20.1048C45.2837 20.1048 45.4836 20.1517 45.6618 20.2455C45.8418 20.3393 45.9994 20.48 46.1348 20.6676V20.1739H46.4765ZM45.0898 20.4381C44.8966 20.4381 44.7184 20.4858 44.5549 20.5812C44.3915 20.675 44.2611 20.8075 44.1636 20.9786C44.068 21.1498 44.0201 21.3308 44.0201 21.5216C44.0201 21.7108 44.0688 21.8918 44.1661 22.0646C44.2636 22.2374 44.3939 22.3723 44.5574 22.4694C44.7225 22.5648 44.8991 22.6125 45.0873 22.6125C45.2772 22.6125 45.4571 22.5648 45.6271 22.4694C45.7972 22.374 45.9276 22.2448 46.0184 22.0819C46.1108 21.919 46.1571 21.7355 46.1571 21.5315C46.1571 21.2204 46.0539 20.9605 45.8476 20.7515C45.6429 20.5425 45.3903 20.4381 45.0898 20.4381ZM47.5526 22.8596V20.4777H48.5703V20.1741H47.2084V22.8596H47.5526ZM50.9041 21.5661H49.339V22.8596H48.9899V20.1741H49.339V21.2404H50.9041V20.1741H51.2508V22.8596H50.9041V21.5661ZM54.2803 20.5541C54.0079 20.2546 53.6645 20.1048 53.2501 20.1048C52.8341 20.1048 52.4899 20.2554 52.2175 20.5566C51.9699 20.8297 51.8461 21.1521 51.8461 21.5241C51.8461 21.8993 51.9765 22.2275 52.2373 22.5089C52.4999 22.7886 52.8374 22.9285 53.2501 22.9285C53.6612 22.9285 53.9971 22.7886 54.258 22.5089C54.5204 22.2275 54.6517 21.8993 54.6517 21.5241C54.6517 21.1505 54.5279 20.8272 54.2803 20.5541ZM52.5097 20.7614C52.7161 20.5491 52.9628 20.4429 53.2501 20.4429C53.5357 20.4429 53.7817 20.5491 53.9881 20.7614C54.1961 20.9736 54.3001 21.2303 54.3001 21.5315C54.3001 21.7256 54.253 21.9066 54.1589 22.0745C54.0648 22.2423 53.9377 22.3723 53.7776 22.4645C53.6175 22.555 53.4417 22.6002 53.2501 22.6002C53.0586 22.6002 52.8828 22.555 52.7227 22.4645C52.5626 22.3723 52.4355 22.2423 52.3414 22.0745C52.2473 21.9066 52.2002 21.7256 52.2002 21.5315C52.2002 21.2303 52.3033 20.9736 52.5097 20.7614ZM57.8625 20.7318L57.5876 20.902C57.3499 20.5878 57.0255 20.4306 56.6144 20.4306C56.286 20.4306 56.0127 20.5359 55.7948 20.7466C55.5786 20.9572 55.4704 21.2131 55.4704 21.5142C55.4704 21.71 55.5199 21.8943 55.619 22.067C55.7196 22.2399 55.8567 22.374 56.0301 22.4694C56.205 22.5648 56.4007 22.6125 56.6169 22.6125C57.0131 22.6125 57.3367 22.4554 57.5876 22.1411L57.8625 22.3213C57.7337 22.5138 57.5604 22.6635 57.3425 22.7705C57.1262 22.8758 56.8794 22.9285 56.6021 22.9285C56.1762 22.9285 55.8229 22.7935 55.5422 22.5237C55.2615 22.2538 55.1213 21.9255 55.1213 21.5388C55.1213 21.2789 55.1865 21.0378 55.3169 20.8157C55.4489 20.5919 55.6297 20.4175 55.8591 20.2924C56.0886 20.1674 56.3453 20.1048 56.6293 20.1048C56.8076 20.1048 56.9792 20.132 57.1443 20.1863C57.3111 20.2406 57.4523 20.3113 57.5678 20.3985C57.6834 20.4858 57.7816 20.5969 57.8625 20.7318ZM59.951 20.1741H58.178V20.4727H58.8887V22.8596H59.2378V20.4727H59.951V20.1741ZM60.7181 20.1741V22.161L62.6967 20.1741H62.7239V22.8596H62.3773V20.8899L60.4135 22.8596H60.3714V20.1741H60.7181ZM64.0421 21.6476H64.6514V22.8596H64.9956V20.1741H64.6514V21.3539H64.1437C63.939 21.3539 63.792 21.3169 63.7029 21.2428C63.6138 21.1672 63.5692 20.9729 63.5692 20.6603V20.1741H63.23V20.8455C63.23 21.0972 63.296 21.2938 63.428 21.4354C63.5617 21.5769 63.7664 21.6476 64.0421 21.6476ZM67.9864 21.9684L68.2787 22.1214C68.1829 22.309 68.0723 22.4603 67.9468 22.5755C67.8214 22.6907 67.6802 22.7787 67.5234 22.8396C67.3666 22.8989 67.189 22.9285 66.991 22.9285C66.5518 22.9285 66.2085 22.7853 65.9608 22.499C65.7132 22.211 65.5894 21.886 65.5894 21.5241C65.5894 21.1834 65.6943 20.8798 65.9039 20.6133C66.1697 20.2743 66.5254 20.1048 66.9712 20.1048C67.4301 20.1048 67.7966 20.2785 68.0706 20.6256C68.2654 20.8708 68.3645 21.1768 68.3678 21.5438H65.946C65.9526 21.8565 66.0525 22.1131 66.2457 22.3138C66.4388 22.513 66.6773 22.6125 66.9612 22.6125C67.0983 22.6125 67.2311 22.5886 67.36 22.541C67.4903 22.4933 67.6009 22.4299 67.6917 22.3509C67.7825 22.2719 67.8808 22.1444 67.9864 21.9684ZM67.9864 21.2451C67.9403 21.0608 67.8725 20.9136 67.7833 20.8034C67.6959 20.6931 67.5795 20.6042 67.4343 20.5367C67.289 20.4693 67.1363 20.4356 66.9762 20.4356C66.712 20.4356 66.485 20.5203 66.2951 20.6898C66.1564 20.8132 66.0516 20.9983 65.9806 21.2451H67.9864ZM71.3055 20.902L71.5804 20.7318C71.4994 20.5969 71.4012 20.4858 71.2857 20.3985C71.1701 20.3113 71.029 20.2406 70.8622 20.1863C70.6971 20.132 70.5254 20.1048 70.3472 20.1048C70.0632 20.1048 69.8065 20.1674 69.577 20.2924C69.3475 20.4175 69.1668 20.5919 69.0347 20.8157C68.9043 21.0378 68.8391 21.2789 68.8391 21.5388C68.8391 21.9255 68.9795 22.2538 69.26 22.5237C69.5407 22.7935 69.894 22.9285 70.3199 22.9285C70.5973 22.9285 70.844 22.8758 71.0604 22.7705C71.2782 22.6635 71.4516 22.5138 71.5804 22.3213L71.3055 22.1411C71.0546 22.4554 70.731 22.6125 70.3347 22.6125C70.1185 22.6125 69.9228 22.5648 69.7479 22.4694C69.5746 22.374 69.4376 22.2399 69.3368 22.067C69.2377 21.8943 69.1882 21.71 69.1882 21.5142C69.1882 21.2131 69.2964 20.9572 69.5126 20.7466C69.7306 20.5359 70.0038 20.4306 70.3322 20.4306C70.7433 20.4306 71.0677 20.5878 71.3055 20.902ZM72.1975 20.1741H72.5466V21.3046L73.7922 20.1741H74.2751L72.9106 21.4032L74.3841 22.8596H73.8937L72.6556 21.618L72.5466 21.7143V22.8596H72.1975V20.1741ZM75.0394 22.161V20.1741H74.6927V22.8596H74.7348L76.6984 20.8899V22.8596H77.0451V20.1741H77.0179L75.0394 22.161ZM78.1144 20.174V22.1609L80.093 20.174H80.1201V22.8595H79.7735V20.8898L77.8098 22.8595H77.7677V20.174H78.1144ZM78.0673 19.0955H78.3942C78.4503 19.181 78.5255 19.2452 78.6196 19.2879C78.7137 19.3307 78.8259 19.3521 78.9563 19.3521C79.0884 19.3521 79.1949 19.3332 79.2757 19.2954C79.3567 19.2574 79.4334 19.1908 79.5061 19.0955H79.823C79.7867 19.2435 79.6934 19.3678 79.5433 19.4681C79.3946 19.5669 79.1982 19.6162 78.9538 19.6162C78.7112 19.6162 78.5131 19.5677 78.3595 19.4706C78.206 19.3718 78.1086 19.2468 78.0673 19.0955ZM82.198 22.8596H84.7163V23.284H85.0432V22.5337H84.4614V20.1741H84.1122V22.5337H82.5471V20.1741H82.198V22.8596ZM87.7285 21.9684L88.0208 22.1214C87.925 22.309 87.8144 22.4603 87.6889 22.5755C87.5635 22.6907 87.4223 22.7787 87.2655 22.8396C87.1087 22.8989 86.9312 22.9285 86.7331 22.9285C86.294 22.9285 85.9506 22.7853 85.703 22.499C85.4554 22.211 85.3315 21.886 85.3315 21.5241C85.3315 21.1834 85.4364 20.8798 85.646 20.6133C85.9118 20.2743 86.2675 20.1048 86.7133 20.1048C87.1722 20.1048 87.5387 20.2785 87.8128 20.6256C88.0075 20.8708 88.1066 21.1768 88.1099 21.5438H85.6881C85.6947 21.8565 85.7946 22.1131 85.9877 22.3138C86.1809 22.513 86.4195 22.6125 86.7034 22.6125C86.8404 22.6125 86.9733 22.5886 87.1021 22.541C87.2325 22.4933 87.3431 22.4299 87.4339 22.3509C87.5247 22.2719 87.6229 22.1444 87.7285 21.9684ZM87.7285 21.2451C87.6823 21.0608 87.6146 20.9136 87.5255 20.8034C87.438 20.6931 87.3216 20.6042 87.1764 20.5367C87.0311 20.4693 86.8784 20.4356 86.7183 20.4356C86.4541 20.4356 86.2271 20.5203 86.0372 20.6898C85.8985 20.8132 85.7938 20.9983 85.7228 21.2451H87.7285ZM89.0574 21.5661H90.6225V22.8596H90.9691V20.1741H90.6225V21.2404H89.0574V20.1741H88.7082V22.8596H89.0574V21.5661ZM91.3904 20.1741H93.1635V20.4727H92.4503V22.8596H92.1011V20.4727H91.3904V20.1741ZM93.9328 20.1739H93.5886V23.8418H93.9328V22.3978C94.078 22.5739 94.2407 22.7063 94.4206 22.7952C94.6006 22.884 94.7979 22.9285 95.0125 22.9285C95.3938 22.9285 95.7191 22.7911 95.9881 22.5163C96.2589 22.2399 96.3942 21.9041 96.3942 21.5093C96.3942 21.1226 96.258 20.7918 95.9856 20.517C95.7133 20.2422 95.3855 20.1048 95.0026 20.1048C94.783 20.1048 94.584 20.1517 94.4058 20.2455C94.2275 20.3393 94.0699 20.48 93.9328 20.6676V20.1739ZM94.2151 20.7515C94.4214 20.5425 94.6748 20.4381 94.9753 20.4381C95.1685 20.4381 95.3468 20.4858 95.5102 20.5812C95.6737 20.675 95.8032 20.8075 95.899 20.9786C95.9964 21.1498 96.045 21.3308 96.045 21.5216C96.045 21.7108 95.9964 21.8918 95.899 22.0646C95.8016 22.2374 95.6704 22.3723 95.5052 22.4694C95.3418 22.5648 95.1668 22.6125 94.9803 22.6125C94.7904 22.6125 94.6096 22.5648 94.438 22.4694C94.2679 22.374 94.1367 22.2448 94.0443 22.0819C93.9535 21.919 93.9081 21.7355 93.9081 21.5315C93.9081 21.2204 94.0104 20.9605 94.2151 20.7515Z" fill="black"/>
</svg>
