<svg width="399" height="65" viewBox="0 0 399 65" fill="none" xmlns="http://www.w3.org/2000/svg">
<mask id="path-1-outside-1_1164_10602" maskUnits="userSpaceOnUse" x="0" y="0.735596" width="399" height="64" fill="black">
<rect fill="white" y="0.735596" width="399" height="64"/>
<path fill-rule="evenodd" clip-rule="evenodd" d="M240.743 20.1447H242.213L241.144 1.7356H239.807C239.807 3.34804 239.139 4.42288 237.802 4.82617C237 4.96048 236.198 4.69186 235.262 4.28857C233.792 3.61666 232.322 3.07906 230.851 2.54182C229.247 2.00422 227.109 1.7356 224.435 1.7356C219.623 1.86991 215.346 3.34804 211.603 6.3043C207.994 9.26056 205.054 13.1573 203.049 17.9947C201.043 22.8323 199.974 28.0726 199.974 33.8508C200.108 41.779 202.247 48.6321 206.524 54.5443C210.668 60.3225 216.95 63.2787 225.504 63.2787C229.782 63.2787 233.525 62.3382 236.866 60.5911C238.47 59.6506 239.673 59.2476 240.609 59.3819C242.079 59.7849 242.881 60.7257 243.015 62.0692H244.485L245.02 42.9882H243.416C242.347 48.6321 240.074 53.2008 236.733 56.6943C233.391 60.0538 229.648 61.8006 225.638 61.8006C221.495 61.8006 217.752 59.9195 214.143 56.0224C210.534 52.1256 208.663 44.332 208.529 32.776C208.395 26.0572 209.197 19.4728 211.202 13.023C213.207 6.70723 217.484 3.21373 224.302 2.94475C229.648 2.67613 233.658 4.42288 236.064 8.18536C238.47 11.9478 240.074 15.9789 240.743 20.1447ZM257.05 3.75098V60.8601H251.169V62.2039H269.214V60.8601H263.199V2.54182H251.169V3.75098H257.05ZM280.308 26.1915V60.8601C280.308 60.8601 274.561 60.8601 274.561 60.9944V62.3382H292.472V60.9944H286.457V24.8477H274.427V26.1915H280.308ZM279.506 6.03532C278.704 6.84154 278.303 7.91674 278.303 9.12589C278.303 10.2011 278.838 11.2759 279.373 12.2165C280.308 13.023 281.244 13.426 282.313 13.426C283.382 13.426 284.318 12.8884 285.12 12.0822C285.922 11.2759 286.323 10.3354 286.323 9.26056C286.323 8.05105 286.056 6.9762 285.254 6.16963C284.586 5.2291 283.65 4.82617 282.447 4.82617C281.377 4.82617 280.308 5.2291 279.506 6.03532ZM316.398 60.8601H310.383V40.1663C310.383 34.7913 311.586 30.7602 313.859 28.3416C316.264 25.9229 318.537 24.8477 320.809 25.3853C322.814 25.7882 324.151 26.8634 324.552 28.4759C324.953 30.2226 325.22 32.776 325.22 36.4038V60.8601H319.205V62.2039H337.117V60.8601H331.235V40.9725C331.235 37.3447 331.235 34.5227 330.968 32.776C330.567 30.2226 329.497 28.0726 327.626 26.3258C325.755 24.5791 323.483 23.7729 320.809 23.7729C318.671 23.7729 316.532 24.5791 314.66 26.0572C312.789 27.5354 311.319 29.2821 310.383 31.4321V24.8477H298.353V26.1915H304.235V60.8601H298.353V62.2039H316.398V60.8601ZM349.013 26.1915V60.8601C349.013 60.8601 343.265 60.8601 343.265 60.9944V62.3382H361.31V60.9944H355.162V24.8477H343.132V26.1915H349.013ZM348.211 6.03532C347.409 6.84154 347.008 7.91674 347.008 9.12589C347.008 10.2011 347.543 11.2759 348.077 12.2165C349.013 13.023 349.949 13.426 351.018 13.426C352.087 13.426 353.023 12.8884 353.825 12.0822C354.627 11.2759 355.028 10.3354 355.028 9.26056C355.028 8.05105 354.761 6.9762 353.959 6.16963C353.29 5.2291 352.355 4.82617 351.152 4.82617C350.082 4.82617 349.013 5.2291 348.211 6.03532ZM396.999 47.2883H395.796C394.46 57.6348 390.182 62.4725 383.098 62.2039C379.489 61.8006 377.217 59.9195 376.014 56.6943C374.811 53.4694 374.276 49.035 374.276 43.5258C374.276 36.2695 375.212 31.2978 377.217 28.7445C379.222 26.1915 381.361 24.982 383.633 24.982C385.237 24.8477 386.44 25.1167 387.509 25.7882C388.445 26.4602 388.979 27.1321 388.979 27.9383C388.979 28.6102 388.712 29.0135 388.311 29.2821C388.177 29.4164 387.91 29.6854 387.509 30.2226C386.707 31.4321 386.44 32.2384 386.44 32.6413C386.306 34.1194 386.707 35.1946 387.375 35.8665C388.044 36.5384 388.979 36.9414 390.182 36.8071C391.385 36.8071 392.321 36.2695 392.99 35.3289C393.658 34.2541 393.925 33.1789 393.925 31.8351C393.792 29.5507 392.856 27.6697 391.118 26.0572C389.38 24.4448 386.975 23.6386 384.168 23.6386C381.361 23.5039 378.687 24.1758 376.014 25.7882C373.34 27.401 371.202 29.6854 369.598 32.776C367.994 35.8665 367.058 39.36 367.058 43.5258C367.058 47.4226 367.593 50.7818 369.063 53.738C370.533 56.6943 372.405 58.9786 374.811 60.5911C377.217 62.3382 379.89 63.1444 382.965 63.2787C390.851 63.413 395.529 58.1724 396.999 47.2883ZM47.2915 2.90597L32.5677 49.9479L17.4901 2.90597H1V4.42723H8.18518V51.3521C8.18518 54.3944 7.83173 56.735 7.12484 58.3731C6.41826 60.0115 4.4154 60.9475 1 61.0648V62.469H18.0795V60.9475H17.4901C17.0192 60.8306 16.4304 60.8306 15.606 60.8306C13.1322 60.4797 11.6006 59.4264 11.0118 57.9052C10.4227 56.2668 10.0696 53.9266 10.0696 50.8839V4.66128L29.3873 63.522H30.0942L48.469 5.01233V61.0648H41.0485V62.469H63.4284V61.0648H55.8901V4.42723H63.4284V2.90597H47.2915ZM68.4932 4.42723H75.6784V60.9475H68.4932V62.352H92.7582C100.532 62.352 106.539 60.8306 110.898 57.671C115.256 54.5117 118.201 50.767 119.732 46.3202C121.263 41.8733 121.97 37.3099 121.852 32.7461C122.088 21.9801 119.379 14.3739 113.961 9.81013C108.542 5.24635 102.652 2.90597 96.4096 2.90597H94.407H92.9938H68.4932V4.42723ZM92.8757 61.0648H83.4527H83.3352V4.54425H92.7582C96.1742 4.42723 99.3546 5.12935 102.535 6.76763C105.715 8.40588 108.307 11.3314 110.309 15.5441C112.312 19.8738 113.254 25.6077 113.136 32.863C113.018 51.703 106.186 61.0648 92.8757 61.0648ZM169.204 20.2249H170.735L170.029 1.73578H168.615C168.615 3.37405 167.908 4.3102 166.495 4.77828C165.67 4.8953 164.846 4.77828 163.903 4.3102C162.254 3.7251 160.723 3.14001 159.309 2.55491C157.66 1.96982 155.423 1.73578 152.713 1.73578C147.766 1.96982 143.29 3.49107 139.521 6.41655C135.752 9.34206 132.807 13.2037 130.686 18.1185C128.684 23.0333 127.624 28.2992 127.624 34.1503C127.742 42.1076 129.98 49.0116 134.22 54.8626C138.461 60.5966 144.939 63.639 153.656 63.639C157.896 63.639 161.783 62.7029 165.199 60.9475C166.848 60.0115 168.144 59.6603 169.086 59.7776C170.617 60.2454 171.442 61.1818 171.56 62.469H173.091L173.445 43.2778H171.795C170.735 49.0116 168.379 53.6923 164.963 57.0862C161.547 60.4797 157.778 62.2348 153.656 62.2348C149.533 62.2348 145.646 60.2454 141.994 56.3838C138.343 52.5224 136.341 44.799 136.223 33.097C135.987 26.3099 136.929 19.6398 138.932 13.2037C140.934 6.7676 145.41 3.37405 152.36 3.02299C157.896 2.78895 161.901 4.54425 164.375 8.28888C166.848 12.0335 168.497 16.0122 169.204 20.2249Z"/>
</mask>
<path fill-rule="evenodd" clip-rule="evenodd" d="M240.743 20.1447H242.213L241.144 1.7356H239.807C239.807 3.34804 239.139 4.42288 237.802 4.82617C237 4.96048 236.198 4.69186 235.262 4.28857C233.792 3.61666 232.322 3.07906 230.851 2.54182C229.247 2.00422 227.109 1.7356 224.435 1.7356C219.623 1.86991 215.346 3.34804 211.603 6.3043C207.994 9.26056 205.054 13.1573 203.049 17.9947C201.043 22.8323 199.974 28.0726 199.974 33.8508C200.108 41.779 202.247 48.6321 206.524 54.5443C210.668 60.3225 216.95 63.2787 225.504 63.2787C229.782 63.2787 233.525 62.3382 236.866 60.5911C238.47 59.6506 239.673 59.2476 240.609 59.3819C242.079 59.7849 242.881 60.7257 243.015 62.0692H244.485L245.02 42.9882H243.416C242.347 48.6321 240.074 53.2008 236.733 56.6943C233.391 60.0538 229.648 61.8006 225.638 61.8006C221.495 61.8006 217.752 59.9195 214.143 56.0224C210.534 52.1256 208.663 44.332 208.529 32.776C208.395 26.0572 209.197 19.4728 211.202 13.023C213.207 6.70723 217.484 3.21373 224.302 2.94475C229.648 2.67613 233.658 4.42288 236.064 8.18536C238.47 11.9478 240.074 15.9789 240.743 20.1447ZM257.05 3.75098V60.8601H251.169V62.2039H269.214V60.8601H263.199V2.54182H251.169V3.75098H257.05ZM280.308 26.1915V60.8601C280.308 60.8601 274.561 60.8601 274.561 60.9944V62.3382H292.472V60.9944H286.457V24.8477H274.427V26.1915H280.308ZM279.506 6.03532C278.704 6.84154 278.303 7.91674 278.303 9.12589C278.303 10.2011 278.838 11.2759 279.373 12.2165C280.308 13.023 281.244 13.426 282.313 13.426C283.382 13.426 284.318 12.8884 285.12 12.0822C285.922 11.2759 286.323 10.3354 286.323 9.26056C286.323 8.05105 286.056 6.9762 285.254 6.16963C284.586 5.2291 283.65 4.82617 282.447 4.82617C281.377 4.82617 280.308 5.2291 279.506 6.03532ZM316.398 60.8601H310.383V40.1663C310.383 34.7913 311.586 30.7602 313.859 28.3416C316.264 25.9229 318.537 24.8477 320.809 25.3853C322.814 25.7882 324.151 26.8634 324.552 28.4759C324.953 30.2226 325.22 32.776 325.22 36.4038V60.8601H319.205V62.2039H337.117V60.8601H331.235V40.9725C331.235 37.3447 331.235 34.5227 330.968 32.776C330.567 30.2226 329.497 28.0726 327.626 26.3258C325.755 24.5791 323.483 23.7729 320.809 23.7729C318.671 23.7729 316.532 24.5791 314.66 26.0572C312.789 27.5354 311.319 29.2821 310.383 31.4321V24.8477H298.353V26.1915H304.235V60.8601H298.353V62.2039H316.398V60.8601ZM349.013 26.1915V60.8601C349.013 60.8601 343.265 60.8601 343.265 60.9944V62.3382H361.31V60.9944H355.162V24.8477H343.132V26.1915H349.013ZM348.211 6.03532C347.409 6.84154 347.008 7.91674 347.008 9.12589C347.008 10.2011 347.543 11.2759 348.077 12.2165C349.013 13.023 349.949 13.426 351.018 13.426C352.087 13.426 353.023 12.8884 353.825 12.0822C354.627 11.2759 355.028 10.3354 355.028 9.26056C355.028 8.05105 354.761 6.9762 353.959 6.16963C353.29 5.2291 352.355 4.82617 351.152 4.82617C350.082 4.82617 349.013 5.2291 348.211 6.03532ZM396.999 47.2883H395.796C394.46 57.6348 390.182 62.4725 383.098 62.2039C379.489 61.8006 377.217 59.9195 376.014 56.6943C374.811 53.4694 374.276 49.035 374.276 43.5258C374.276 36.2695 375.212 31.2978 377.217 28.7445C379.222 26.1915 381.361 24.982 383.633 24.982C385.237 24.8477 386.44 25.1167 387.509 25.7882C388.445 26.4602 388.979 27.1321 388.979 27.9383C388.979 28.6102 388.712 29.0135 388.311 29.2821C388.177 29.4164 387.91 29.6854 387.509 30.2226C386.707 31.4321 386.44 32.2384 386.44 32.6413C386.306 34.1194 386.707 35.1946 387.375 35.8665C388.044 36.5384 388.979 36.9414 390.182 36.8071C391.385 36.8071 392.321 36.2695 392.99 35.3289C393.658 34.2541 393.925 33.1789 393.925 31.8351C393.792 29.5507 392.856 27.6697 391.118 26.0572C389.38 24.4448 386.975 23.6386 384.168 23.6386C381.361 23.5039 378.687 24.1758 376.014 25.7882C373.34 27.401 371.202 29.6854 369.598 32.776C367.994 35.8665 367.058 39.36 367.058 43.5258C367.058 47.4226 367.593 50.7818 369.063 53.738C370.533 56.6943 372.405 58.9786 374.811 60.5911C377.217 62.3382 379.89 63.1444 382.965 63.2787C390.851 63.413 395.529 58.1724 396.999 47.2883ZM47.2915 2.90597L32.5677 49.9479L17.4901 2.90597H1V4.42723H8.18518V51.3521C8.18518 54.3944 7.83173 56.735 7.12484 58.3731C6.41826 60.0115 4.4154 60.9475 1 61.0648V62.469H18.0795V60.9475H17.4901C17.0192 60.8306 16.4304 60.8306 15.606 60.8306C13.1322 60.4797 11.6006 59.4264 11.0118 57.9052C10.4227 56.2668 10.0696 53.9266 10.0696 50.8839V4.66128L29.3873 63.522H30.0942L48.469 5.01233V61.0648H41.0485V62.469H63.4284V61.0648H55.8901V4.42723H63.4284V2.90597H47.2915ZM68.4932 4.42723H75.6784V60.9475H68.4932V62.352H92.7582C100.532 62.352 106.539 60.8306 110.898 57.671C115.256 54.5117 118.201 50.767 119.732 46.3202C121.263 41.8733 121.97 37.3099 121.852 32.7461C122.088 21.9801 119.379 14.3739 113.961 9.81013C108.542 5.24635 102.652 2.90597 96.4096 2.90597H94.407H92.9938H68.4932V4.42723ZM92.8757 61.0648H83.4527H83.3352V4.54425H92.7582C96.1742 4.42723 99.3546 5.12935 102.535 6.76763C105.715 8.40588 108.307 11.3314 110.309 15.5441C112.312 19.8738 113.254 25.6077 113.136 32.863C113.018 51.703 106.186 61.0648 92.8757 61.0648ZM169.204 20.2249H170.735L170.029 1.73578H168.615C168.615 3.37405 167.908 4.3102 166.495 4.77828C165.67 4.8953 164.846 4.77828 163.903 4.3102C162.254 3.7251 160.723 3.14001 159.309 2.55491C157.66 1.96982 155.423 1.73578 152.713 1.73578C147.766 1.96982 143.29 3.49107 139.521 6.41655C135.752 9.34206 132.807 13.2037 130.686 18.1185C128.684 23.0333 127.624 28.2992 127.624 34.1503C127.742 42.1076 129.98 49.0116 134.22 54.8626C138.461 60.5966 144.939 63.639 153.656 63.639C157.896 63.639 161.783 62.7029 165.199 60.9475C166.848 60.0115 168.144 59.6603 169.086 59.7776C170.617 60.2454 171.442 61.1818 171.56 62.469H173.091L173.445 43.2778H171.795C170.735 49.0116 168.379 53.6923 164.963 57.0862C161.547 60.4797 157.778 62.2348 153.656 62.2348C149.533 62.2348 145.646 60.2454 141.994 56.3838C138.343 52.5224 136.341 44.799 136.223 33.097C135.987 26.3099 136.929 19.6398 138.932 13.2037C140.934 6.7676 145.41 3.37405 152.36 3.02299C157.896 2.78895 161.901 4.54425 164.375 8.28888C166.848 12.0335 168.497 16.0122 169.204 20.2249Z" fill="black"/>
<path d="M242.213 20.1447V21.1447H243.273L243.211 20.0867L242.213 20.1447ZM240.743 20.1447L239.755 20.3031L239.89 21.1447H240.743V20.1447ZM241.144 1.7356L242.142 1.67761L242.087 0.735596H241.144V1.7356ZM239.807 1.7356V0.735596H238.807V1.7356H239.807ZM237.802 4.82617L237.967 5.81244L238.03 5.80192L238.091 5.78354L237.802 4.82617ZM235.262 4.28857L234.847 5.19814L234.857 5.20261L234.867 5.20688L235.262 4.28857ZM230.851 2.54182L231.194 1.60256L231.182 1.59793L231.169 1.59365L230.851 2.54182ZM224.435 1.7356V0.735596H224.421L224.407 0.735985L224.435 1.7356ZM211.603 6.3043L210.983 5.51956L210.976 5.52507L210.97 5.5307L211.603 6.3043ZM203.049 17.9947L202.125 17.6118L202.125 17.6118L203.049 17.9947ZM199.974 33.8508H198.974V33.8592L198.974 33.8677L199.974 33.8508ZM206.524 54.5443L207.337 53.9615L207.334 53.9581L206.524 54.5443ZM236.866 60.5911L237.33 61.4773L237.351 61.466L237.372 61.4537L236.866 60.5911ZM240.609 59.3819L240.873 58.4175L240.813 58.401L240.751 58.3921L240.609 59.3819ZM243.015 62.0692L242.02 62.1682L242.11 63.0692H243.015V62.0692ZM244.485 62.0692V63.0692H245.458L245.485 62.0972L244.485 62.0692ZM245.02 42.9882L246.02 43.0162L246.049 41.9882H245.02V42.9882ZM243.416 42.9882V41.9882H242.588L242.434 42.802L243.416 42.9882ZM236.733 56.6943L237.442 57.3995L237.449 57.3926L237.455 57.3855L236.733 56.6943ZM214.143 56.0224L213.409 56.7019L214.143 56.0224ZM208.529 32.776L209.529 32.7644L209.529 32.7561L208.529 32.776ZM211.202 13.023L210.249 12.7204L210.247 12.7262L211.202 13.023ZM224.302 2.94475L224.341 3.94403L224.352 3.94349L224.302 2.94475ZM236.064 8.18536L235.222 8.72407L235.222 8.72413L236.064 8.18536ZM257.05 60.8601V61.8601H258.05V60.8601H257.05ZM257.05 3.75098H258.05V2.75098H257.05V3.75098ZM251.169 60.8601V59.8601H250.169V60.8601H251.169ZM251.169 62.2039H250.169V63.2039H251.169V62.2039ZM269.214 62.2039V63.2039H270.214V62.2039H269.214ZM269.214 60.8601H270.214V59.8601H269.214V60.8601ZM263.199 60.8601H262.199V61.8601H263.199V60.8601ZM263.199 2.54182H264.199V1.54182H263.199V2.54182ZM251.169 2.54182V1.54182H250.169V2.54182H251.169ZM251.169 3.75098H250.169V4.75098H251.169V3.75098ZM280.308 60.8601V61.8601H281.308V60.8601H280.308ZM280.308 26.1915H281.308V25.1915H280.308V26.1915ZM274.561 62.3382H273.561V63.3382H274.561V62.3382ZM292.472 62.3382V63.3382H293.472V62.3382H292.472ZM292.472 60.9944H293.472V59.9944H292.472V60.9944ZM286.457 60.9944H285.457V61.9944H286.457V60.9944ZM286.457 24.8477H287.457V23.8477H286.457V24.8477ZM274.427 24.8477V23.8477H273.427V24.8477H274.427ZM274.427 26.1915H273.427V27.1915H274.427V26.1915ZM279.506 6.03532L280.215 6.74064L280.215 6.74051L279.506 6.03532ZM279.373 12.2165L278.503 12.7107L278.589 12.861L278.72 12.9738L279.373 12.2165ZM285.12 12.0822L284.411 11.3768L284.411 11.377L285.12 12.0822ZM285.254 6.16963L284.439 6.74877L284.486 6.81617L284.545 6.8748L285.254 6.16963ZM310.383 60.8601H309.383V61.8601H310.383V60.8601ZM316.398 60.8601H317.398V59.8601H316.398V60.8601ZM313.859 28.3416L313.15 27.6363L313.14 27.6465L313.13 27.6568L313.859 28.3416ZM320.809 25.3853L320.579 26.3584L320.595 26.3624L320.612 26.3657L320.809 25.3853ZM324.552 28.4759L325.526 28.2521L325.524 28.2433L325.522 28.2345L324.552 28.4759ZM325.22 60.8601V61.8601H326.22V60.8601H325.22ZM319.205 60.8601V59.8601H318.205V60.8601H319.205ZM319.205 62.2039H318.205V63.2039H319.205V62.2039ZM337.117 62.2039V63.2039H338.117V62.2039H337.117ZM337.117 60.8601H338.117V59.8601H337.117V60.8601ZM331.235 60.8601H330.235V61.8601H331.235V60.8601ZM330.968 32.776L331.956 32.6246L331.956 32.6209L330.968 32.776ZM327.626 26.3258L326.944 27.0569V27.0569L327.626 26.3258ZM314.66 26.0572L315.28 26.842L315.28 26.842L314.66 26.0572ZM310.383 31.4321H309.383L311.3 31.8311L310.383 31.4321ZM310.383 24.8477H311.383V23.8477H310.383V24.8477ZM298.353 24.8477V23.8477H297.353V24.8477H298.353ZM298.353 26.1915H297.353V27.1915H298.353V26.1915ZM304.235 26.1915H305.235V25.1915H304.235V26.1915ZM304.235 60.8601V61.8601H305.235V60.8601H304.235ZM298.353 60.8601V59.8601H297.353V60.8601H298.353ZM298.353 62.2039H297.353V63.2039H298.353V62.2039ZM316.398 62.2039V63.2039H317.398V62.2039H316.398ZM349.013 60.8601V61.8601H350.013V60.8601H349.013ZM349.013 26.1915H350.013V25.1915H349.013V26.1915ZM343.265 62.3382H342.265V63.3382H343.265V62.3382ZM361.31 62.3382V63.3382H362.31V62.3382H361.31ZM361.31 60.9944H362.31V59.9944H361.31V60.9944ZM355.162 60.9944H354.162V61.9944H355.162V60.9944ZM355.162 24.8477H356.162V23.8477H355.162V24.8477ZM343.132 24.8477V23.8477H342.132V24.8477H343.132ZM343.132 26.1915H342.132V27.1915H343.132V26.1915ZM348.211 6.03532L348.92 6.74065L348.92 6.74049L348.211 6.03532ZM348.077 12.2165L347.208 12.7107L347.293 12.861L347.424 12.9738L348.077 12.2165ZM353.825 12.0822L353.116 11.3768L353.116 11.377L353.825 12.0822ZM353.959 6.16963L353.143 6.74875L353.191 6.81617L353.249 6.87481L353.959 6.16963ZM395.796 47.2883V46.2883H394.917L394.805 47.1602L395.796 47.2883ZM396.999 47.2883L397.99 47.4221L398.144 46.2883H396.999V47.2883ZM383.098 62.2039L382.987 63.1977L383.024 63.2018L383.06 63.2032L383.098 62.2039ZM376.014 56.6943L376.951 56.3448V56.3448L376.014 56.6943ZM377.217 28.7445L376.43 28.1268L376.43 28.1269L377.217 28.7445ZM383.633 24.982V25.982H383.675L383.716 25.9785L383.633 24.982ZM387.509 25.7882L388.092 24.976L388.067 24.9579L388.041 24.9414L387.509 25.7882ZM388.311 29.2821L387.754 28.4512L387.672 28.5064L387.602 28.5766L388.311 29.2821ZM387.509 30.2226L386.708 29.6244L386.691 29.6467L386.676 29.6699L387.509 30.2226ZM386.44 32.6413L387.435 32.7311L387.44 32.6863V32.6413H386.44ZM387.375 35.8665L388.084 35.1612H388.084L387.375 35.8665ZM390.182 36.8071V35.8071H390.127L390.071 35.8132L390.182 36.8071ZM392.99 35.3289L393.805 35.908L393.823 35.8831L393.839 35.8571L392.99 35.3289ZM393.925 31.8351H394.925V31.8058L394.924 31.7766L393.925 31.8351ZM391.118 26.0572L391.798 25.3242V25.3242L391.118 26.0572ZM384.168 23.6386L384.12 24.6374L384.144 24.6386H384.168V23.6386ZM376.014 25.7882L375.497 24.932L375.497 24.932L376.014 25.7882ZM369.598 32.776L368.71 32.3153V32.3153L369.598 32.776ZM369.063 53.738L369.958 53.2927V53.2927L369.063 53.738ZM374.811 60.5911L375.398 59.7819L375.383 59.7709L375.368 59.7604L374.811 60.5911ZM382.965 63.2787L382.921 64.2778L382.934 64.2783L382.947 64.2786L382.965 63.2787ZM32.5677 49.9479L31.6154 50.2531L32.579 53.2596L33.522 50.2466L32.5677 49.9479ZM47.2915 2.90597V1.90597H46.5566L46.3371 2.60727L47.2915 2.90597ZM17.4901 2.90597L18.4424 2.60075L18.2197 1.90597H17.4901V2.90597ZM1 2.90597V1.90597H0V2.90597H1ZM1 4.42723H0V5.42723H1V4.42723ZM8.18518 4.42723H9.18518V3.42723H8.18518V4.42723ZM7.12484 58.3731L6.20668 57.9769L6.20659 57.9771L7.12484 58.3731ZM1 61.0648L0.965684 60.0654L0 60.0986V61.0648H1ZM1 62.469H0V63.469H1V62.469ZM18.0795 62.469V63.469H19.0795V62.469H18.0795ZM18.0795 60.9475H19.0795V59.9475H18.0795V60.9475ZM17.4901 60.9475L17.2491 61.9181L17.3678 61.9475H17.4901V60.9475ZM15.606 60.8306L15.4655 61.8207L15.5354 61.8306H15.606V60.8306ZM11.0118 57.9052L10.0708 58.2436L10.0749 58.2549L10.0792 58.2662L11.0118 57.9052ZM10.0696 4.66128L11.0197 4.34945L9.0696 4.66128H10.0696ZM29.3873 63.522L28.4371 63.8338L28.663 64.522H29.3873V63.522ZM30.0942 63.522V64.522H30.8283L31.0482 63.8216L30.0942 63.522ZM48.469 5.01233H49.469L47.5149 4.71271L48.469 5.01233ZM48.469 61.0648V62.0648H49.469V61.0648H48.469ZM41.0485 61.0648V60.0648H40.0485V61.0648H41.0485ZM41.0485 62.469H40.0485V63.469H41.0485V62.469ZM63.4284 62.469V63.469H64.4284V62.469H63.4284ZM63.4284 61.0648H64.4284V60.0648H63.4284V61.0648ZM55.8901 61.0648H54.8901V62.0648H55.8901V61.0648ZM55.8901 4.42723V3.42723H54.8901V4.42723H55.8901ZM63.4284 4.42723V5.42723H64.4284V4.42723H63.4284ZM63.4284 2.90597H64.4284V1.90597H63.4284V2.90597ZM75.6784 4.42723H76.6784V3.42723H75.6784V4.42723ZM68.4932 4.42723H67.4932V5.42723H68.4932V4.42723ZM75.6784 60.9475V61.9475H76.6784V60.9475H75.6784ZM68.4932 60.9475V59.9475H67.4932V60.9475H68.4932ZM68.4932 62.352H67.4932V63.352H68.4932V62.352ZM110.898 57.671L110.311 56.8613L110.311 56.8614L110.898 57.671ZM119.732 46.3202L118.786 45.9946L119.732 46.3202ZM121.852 32.7461L120.852 32.7242L120.852 32.748L120.852 32.7719L121.852 32.7461ZM113.961 9.81013L114.605 9.04529L114.605 9.04528L113.961 9.81013ZM68.4932 2.90597V1.90597H67.4932V2.90597H68.4932ZM83.3352 61.0648H82.3352V62.0648H83.3352V61.0648ZM83.3352 4.54425V3.54425H82.3352V4.54425H83.3352ZM92.7582 4.54425V5.54425H92.7753L92.7924 5.54367L92.7582 4.54425ZM102.535 6.76763L102.077 7.6566L102.077 7.65662L102.535 6.76763ZM110.309 15.5441L111.217 15.1243L111.212 15.1148L110.309 15.5441ZM113.136 32.863L112.136 32.8468L112.136 32.8568L113.136 32.863ZM170.735 20.2249V21.2249H171.774L171.734 20.1867L170.735 20.2249ZM169.204 20.2249L168.217 20.3903L168.357 21.2249H169.204V20.2249ZM170.029 1.73578L171.028 1.69759L170.991 0.735779H170.029V1.73578ZM168.615 1.73578V0.735779H167.615V1.73578H168.615ZM166.495 4.77828L166.635 5.76835L166.724 5.75575L166.809 5.72758L166.495 4.77828ZM163.903 4.3102L164.348 3.41462L164.294 3.38787L164.238 3.36776L163.903 4.3102ZM159.309 2.55491L159.692 1.63095L159.668 1.62109L159.644 1.61247L159.309 2.55491ZM152.713 1.73578V0.735779H152.69L152.666 0.736896L152.713 1.73578ZM139.521 6.41655L138.908 5.62658V5.62659L139.521 6.41655ZM130.686 18.1185L129.768 17.7224L129.764 17.7317L129.76 17.7412L130.686 18.1185ZM127.624 34.1503H126.624V34.1577L126.624 34.1651L127.624 34.1503ZM134.22 54.8626L133.41 55.4494L133.416 55.4572L134.22 54.8626ZM165.199 60.9475L165.656 61.837L165.675 61.8275L165.693 61.8172L165.199 60.9475ZM169.086 59.7776L169.378 58.8212L169.295 58.7959L169.21 58.7852L169.086 59.7776ZM171.56 62.469L170.564 62.5601L170.647 63.469H171.56V62.469ZM173.091 62.469V63.469H174.073L174.091 62.4874L173.091 62.469ZM173.445 43.2778L174.444 43.2963L174.463 42.2778H173.445V43.2778ZM171.795 43.2778V42.2778H170.963L170.812 43.096L171.795 43.2778ZM164.963 57.0862L165.668 57.7956L164.963 57.0862ZM141.994 56.3838L141.268 57.0708V57.0708L141.994 56.3838ZM136.223 33.097L137.223 33.0869L137.223 33.0746L137.222 33.0623L136.223 33.097ZM138.932 13.2037L137.977 12.9066L137.977 12.9066L138.932 13.2037ZM152.36 3.02299L152.318 2.02385L152.31 2.02427L152.36 3.02299ZM164.375 8.28888L165.209 7.73772L165.209 7.73768L164.375 8.28888ZM242.213 19.1447H240.743V21.1447H242.213V19.1447ZM240.145 1.79358L241.215 20.2027L243.211 20.0867L242.142 1.67761L240.145 1.79358ZM239.807 2.7356H241.144V0.735596H239.807V2.7356ZM238.091 5.78354C238.964 5.52013 239.672 5.01521 240.147 4.27447C240.613 3.549 240.807 2.67389 240.807 1.7356H238.807C238.807 2.40974 238.667 2.87827 238.464 3.19416C238.271 3.49477 237.977 3.72891 237.513 3.86879L238.091 5.78354ZM234.867 5.20688C235.801 5.60989 236.848 5.99986 237.967 5.81244L237.637 3.83989C237.152 3.9211 236.594 3.77382 235.658 3.37026L234.867 5.20688ZM230.508 3.48108C231.983 4.02017 233.417 4.54504 234.847 5.19814L235.678 3.379C234.166 2.68829 232.66 2.13795 231.194 1.60256L230.508 3.48108ZM224.435 2.7356C227.056 2.7356 229.074 3.0007 230.533 3.48998L231.169 1.59365C229.421 1.00774 227.162 0.735596 224.435 0.735596V2.7356ZM212.223 7.08903C215.788 4.27358 219.854 2.86385 224.463 2.73521L224.407 0.735985C219.392 0.875969 214.904 2.4225 210.983 5.51956L212.223 7.08903ZM203.972 18.3776C205.916 13.6882 208.759 9.92697 212.237 7.0779L210.97 5.5307C207.23 8.59415 204.191 12.6265 202.125 17.6118L203.972 18.3776ZM200.974 33.8508C200.974 28.2005 202.019 23.0907 203.972 18.3776L202.125 17.6118C200.068 22.574 198.974 27.9447 198.974 33.8508H200.974ZM207.334 53.9581C203.19 48.2295 201.105 41.5805 200.974 33.8339L198.974 33.8677C199.111 41.9776 201.304 49.0347 205.714 55.1304L207.334 53.9581ZM225.504 62.2787C217.209 62.2787 211.258 59.43 207.337 53.9615L205.711 55.127C210.077 61.215 216.691 64.2787 225.504 64.2787V62.2787ZM236.403 59.7049C233.211 61.374 229.628 62.2787 225.504 62.2787V64.2787C229.936 64.2787 233.839 63.3024 237.33 61.4773L236.403 59.7049ZM240.751 58.3921C239.452 58.2055 237.987 58.7748 236.361 59.7284L237.372 61.4537C238.954 60.5263 239.895 60.2897 240.467 60.3718L240.751 58.3921ZM244.01 61.9702C243.925 61.1185 243.621 60.3418 243.062 59.7104C242.507 59.0829 241.756 58.6593 240.873 58.4175L240.345 60.3464C240.932 60.5075 241.317 60.7558 241.564 61.0353C241.808 61.311 241.971 61.6764 242.02 62.1682L244.01 61.9702ZM244.485 61.0692H243.015V63.0692H244.485V61.0692ZM244.021 42.9602L243.486 62.0412L245.485 62.0972L246.02 43.0162L244.021 42.9602ZM243.416 43.9882H245.02V41.9882H243.416V43.9882ZM237.455 57.3855C240.949 53.7333 243.298 48.9806 244.399 43.1744L242.434 42.802C241.395 48.2836 239.2 52.6683 236.01 56.0031L237.455 57.3855ZM225.638 62.8006C229.968 62.8006 233.954 60.9063 237.442 57.3995L236.024 55.9891C232.829 59.2013 229.329 60.8006 225.638 60.8006V62.8006ZM213.409 56.7019C217.151 60.7423 221.143 62.8006 225.638 62.8006V60.8006C221.847 60.8006 218.353 59.0967 214.876 55.3429L213.409 56.7019ZM207.529 32.7875C207.596 38.6102 208.101 43.5282 209.061 47.5058C210.018 51.4741 211.444 54.5799 213.409 56.7019L214.876 55.3429C213.233 53.5681 211.919 50.8287 211.005 47.037C210.093 43.2546 209.595 38.4977 209.529 32.7644L207.529 32.7875ZM210.247 12.7262C208.207 19.2904 207.394 25.9831 207.529 32.7959L209.529 32.7561C209.397 26.1313 210.188 19.6552 212.157 13.3199L210.247 12.7262ZM224.262 1.94553C220.687 2.08659 217.7 3.07866 215.332 4.92823C212.966 6.77578 211.298 9.41687 210.249 12.7204L212.155 13.3256C213.112 10.3134 214.584 8.04983 216.563 6.50444C218.539 4.96106 221.099 4.07189 224.341 3.94398L224.262 1.94553ZM236.907 7.64665C234.261 3.5092 229.862 1.66416 224.251 1.94601L224.352 3.94349C229.435 3.68811 233.056 5.33656 235.222 8.72407L236.907 7.64665ZM241.73 19.9863C241.038 15.6716 239.379 11.5124 236.907 7.6466L235.222 8.72413C237.562 12.3833 239.111 16.2863 239.755 20.3031L241.73 19.9863ZM258.05 60.8601V3.75098H256.05V60.8601H258.05ZM251.169 61.8601H257.05V59.8601H251.169V61.8601ZM252.169 62.2039V60.8601H250.169V62.2039H252.169ZM269.214 61.2039H251.169V63.2039H269.214V61.2039ZM268.214 60.8601V62.2039H270.214V60.8601H268.214ZM263.199 61.8601H269.214V59.8601H263.199V61.8601ZM262.199 2.54182V60.8601H264.199V2.54182H262.199ZM251.169 3.54182H263.199V1.54182H251.169V3.54182ZM252.169 3.75098V2.54182H250.169V3.75098H252.169ZM257.05 2.75098H251.169V4.75098H257.05V2.75098ZM281.308 60.8601V26.1915H279.308V60.8601H281.308ZM275.561 60.9944C275.561 61.4733 275.242 61.731 275.158 61.7935C275.047 61.8746 274.948 61.9114 274.918 61.9224C274.875 61.9377 274.843 61.9459 274.828 61.9493C274.812 61.9531 274.801 61.9551 274.798 61.9557C274.793 61.9565 274.818 61.9526 274.889 61.9467C275.022 61.9358 275.228 61.9254 275.494 61.9161C276.02 61.8976 276.729 61.8852 277.446 61.8768C278.161 61.8684 278.877 61.8642 279.414 61.8622C279.682 61.8611 279.906 61.8606 280.063 61.8603C280.141 61.8602 280.202 61.8601 280.244 61.8601C280.265 61.8601 280.281 61.8601 280.292 61.8601C280.297 61.8601 280.301 61.8601 280.304 61.8601C280.305 61.8601 280.306 61.8601 280.307 61.8601C280.307 61.8601 280.308 61.8601 280.308 61.8601C280.308 61.8601 280.308 61.8601 280.308 61.8601C280.308 61.8601 280.308 61.8601 280.308 60.8601C280.308 59.8601 280.308 59.8601 280.308 59.8601C280.308 59.8601 280.308 59.8601 280.308 59.8601C280.308 59.8601 280.307 59.8601 280.307 59.8601C280.306 59.8601 280.305 59.8601 280.304 59.8601C280.301 59.8601 280.297 59.8601 280.291 59.8601C280.28 59.8601 280.264 59.8601 280.243 59.8601C280.2 59.8601 280.138 59.8602 280.059 59.8603C279.902 59.8606 279.676 59.8611 279.406 59.8622C278.866 59.8643 278.145 59.8685 277.423 59.8769C276.702 59.8853 275.974 59.898 275.424 59.9173C275.151 59.9269 274.907 59.9385 274.726 59.9534C274.64 59.9604 274.541 59.9702 274.452 59.9857C274.416 59.9922 274.331 60.0078 274.236 60.042C274.195 60.0569 274.088 60.0977 273.972 60.1828C273.882 60.2494 273.561 60.5113 273.561 60.9944H275.561ZM275.561 62.3382V60.9944H273.561V62.3382H275.561ZM292.472 61.3382H274.561V63.3382H292.472V61.3382ZM291.472 60.9944V62.3382H293.472V60.9944H291.472ZM286.457 61.9944H292.472V59.9944H286.457V61.9944ZM285.457 24.8477V60.9944H287.457V24.8477H285.457ZM274.427 25.8477H286.457V23.8477H274.427V25.8477ZM275.427 26.1915V24.8477H273.427V26.1915H275.427ZM280.308 25.1915H274.427V27.1915H280.308V25.1915ZM279.303 9.12589C279.303 8.14574 279.623 7.33582 280.215 6.74064L278.797 5.33001C277.785 6.34727 277.303 7.68774 277.303 9.12589H279.303ZM280.242 11.7222C279.703 10.7747 279.303 9.90859 279.303 9.12589H277.303C277.303 10.4936 277.972 11.7771 278.503 12.7107L280.242 11.7222ZM282.313 12.426C281.535 12.426 280.823 12.1467 280.026 11.4591L278.72 12.9738C279.793 13.8994 280.952 14.426 282.313 14.426V12.426ZM284.411 11.377C283.718 12.0742 283.022 12.426 282.313 12.426V14.426C283.743 14.426 284.919 13.7026 285.829 12.7873L284.411 11.377ZM285.323 9.26056C285.323 10.0547 285.039 10.7461 284.411 11.3768L285.829 12.7875C286.806 11.8058 287.323 10.6161 287.323 9.26056H285.323ZM284.545 6.8748C285.086 7.41943 285.323 8.18729 285.323 9.26056H287.323C287.323 7.91482 287.025 6.53298 285.963 5.46447L284.545 6.8748ZM282.447 5.82617C283.388 5.82617 283.991 6.11927 284.439 6.74877L286.069 5.5905C285.18 4.33894 283.911 3.82617 282.447 3.82617V5.82617ZM280.215 6.74051C280.818 6.13491 281.626 5.82617 282.447 5.82617V3.82617C281.128 3.82617 279.799 4.3233 278.797 5.33014L280.215 6.74051ZM310.383 61.8601H316.398V59.8601H310.383V61.8601ZM309.383 40.1663V60.8601H311.383V40.1663H309.383ZM313.13 27.6568C310.605 30.3443 309.383 34.6808 309.383 40.1663H311.383C311.383 34.9019 312.568 31.1761 314.587 29.0263L313.13 27.6568ZM321.039 24.4122C318.254 23.7531 315.639 25.1335 313.15 27.6363L314.568 29.0468C316.89 26.7123 318.82 25.9423 320.579 26.3584L321.039 24.4122ZM325.522 28.2345C325.001 26.138 323.266 24.8591 321.006 24.4049L320.612 26.3657C322.362 26.7174 323.301 27.5889 323.581 28.7173L325.522 28.2345ZM326.22 36.4038C326.22 32.7359 325.951 30.1001 325.526 28.2521L323.577 28.6997C323.955 30.3452 324.22 32.816 324.22 36.4038H326.22ZM326.22 60.8601V36.4038H324.22V60.8601H326.22ZM319.205 61.8601H325.22V59.8601H319.205V61.8601ZM320.205 62.2039V60.8601H318.205V62.2039H320.205ZM337.117 61.2039H319.205V63.2039H337.117V61.2039ZM336.117 60.8601V62.2039H338.117V60.8601H336.117ZM331.235 61.8601H337.117V59.8601H331.235V61.8601ZM330.235 40.9725V60.8601H332.235V40.9725H330.235ZM329.979 32.9273C330.232 34.5789 330.235 37.3028 330.235 40.9725H332.235C332.235 37.3866 332.238 34.4666 331.956 32.6246L329.979 32.9273ZM326.944 27.0569C328.638 28.6381 329.611 30.5788 329.98 32.931L331.956 32.6209C331.523 29.8665 330.357 27.5071 328.308 25.5948L326.944 27.0569ZM320.809 24.7729C323.261 24.7729 325.279 25.5034 326.944 27.0569L328.308 25.5948C326.23 23.6548 323.704 22.7729 320.809 22.7729V24.7729ZM315.28 26.842C317.001 25.4828 318.927 24.7729 320.809 24.7729V22.7729C318.415 22.7729 316.063 23.6754 314.041 25.2725L315.28 26.842ZM311.3 31.8311C312.158 29.8595 313.513 28.2381 315.28 26.842L314.041 25.2725C312.065 26.8326 310.479 28.7047 309.466 31.0332L311.3 31.8311ZM309.383 24.8477V31.4321H311.383V24.8477H309.383ZM298.353 25.8477H310.383V23.8477H298.353V25.8477ZM299.353 26.1915V24.8477H297.353V26.1915H299.353ZM304.235 25.1915H298.353V27.1915H304.235V25.1915ZM305.235 60.8601V26.1915H303.235V60.8601H305.235ZM298.353 61.8601H304.235V59.8601H298.353V61.8601ZM299.353 62.2039V60.8601H297.353V62.2039H299.353ZM316.398 61.2039H298.353V63.2039H316.398V61.2039ZM315.398 60.8601V62.2039H317.398V60.8601H315.398ZM350.013 60.8601V26.1915H348.013V60.8601H350.013ZM344.265 60.9944C344.265 61.4733 343.947 61.731 343.862 61.7935C343.752 61.8746 343.653 61.9114 343.622 61.9224C343.58 61.9377 343.547 61.9459 343.533 61.9493C343.517 61.9531 343.506 61.9551 343.503 61.9557C343.498 61.9565 343.522 61.9526 343.594 61.9467C343.727 61.9358 343.932 61.9254 344.198 61.9161C344.725 61.8976 345.434 61.8852 346.151 61.8768C346.866 61.8684 347.581 61.8642 348.119 61.8622C348.387 61.8611 348.611 61.8606 348.768 61.8603C348.846 61.8602 348.907 61.8601 348.949 61.8601C348.97 61.8601 348.986 61.8601 348.997 61.8601C349.002 61.8601 349.006 61.8601 349.009 61.8601C349.01 61.8601 349.011 61.8601 349.012 61.8601C349.012 61.8601 349.012 61.8601 349.013 61.8601C349.013 61.8601 349.013 61.8601 349.013 61.8601C349.013 61.8601 349.013 61.8601 349.013 60.8601C349.013 59.8601 349.013 59.8601 349.013 59.8601C349.013 59.8601 349.013 59.8601 349.013 59.8601C349.012 59.8601 349.012 59.8601 349.012 59.8601C349.011 59.8601 349.01 59.8601 349.008 59.8601C349.006 59.8601 349.001 59.8601 348.996 59.8601C348.985 59.8601 348.969 59.8601 348.948 59.8601C348.905 59.8601 348.843 59.8602 348.764 59.8603C348.606 59.8606 348.381 59.8611 348.111 59.8622C347.571 59.8643 346.849 59.8685 346.127 59.8769C345.407 59.8853 344.679 59.898 344.128 59.9173C343.855 59.9269 343.612 59.9385 343.431 59.9534C343.345 59.9604 343.246 59.9702 343.157 59.9857C343.121 59.9922 343.036 60.0078 342.941 60.042C342.9 60.0569 342.792 60.0977 342.677 60.1828C342.586 60.2494 342.265 60.5113 342.265 60.9944H344.265ZM344.265 62.3382V60.9944H342.265V62.3382H344.265ZM361.31 61.3382H343.265V63.3382H361.31V61.3382ZM360.31 60.9944V62.3382H362.31V60.9944H360.31ZM355.162 61.9944H361.31V59.9944H355.162V61.9944ZM354.162 24.8477V60.9944H356.162V24.8477H354.162ZM343.132 25.8477H355.162V23.8477H343.132V25.8477ZM344.132 26.1915V24.8477H342.132V26.1915H344.132ZM349.013 25.1915H343.132V27.1915H349.013V25.1915ZM348.008 9.12589C348.008 8.1455 348.328 7.33569 348.92 6.74065L347.502 5.32999C346.49 6.3474 346.008 7.68797 346.008 9.12589H348.008ZM348.947 11.7222C348.408 10.775 348.008 9.90871 348.008 9.12589H346.008C346.008 10.4935 346.677 11.7769 347.208 12.7107L348.947 11.7222ZM351.018 12.426C350.24 12.426 349.528 12.1467 348.73 11.4591L347.424 12.9738C348.498 13.8994 349.657 14.426 351.018 14.426V12.426ZM353.116 11.377C352.422 12.0742 351.726 12.426 351.018 12.426V14.426C352.448 14.426 353.624 13.7026 354.534 12.7873L353.116 11.377ZM354.028 9.26056C354.028 10.0545 353.744 10.7459 353.116 11.3768L354.534 12.7875C355.51 11.806 356.028 10.6163 356.028 9.26056H354.028ZM353.249 6.87481C353.791 7.41957 354.028 8.18754 354.028 9.26056H356.028C356.028 7.91456 355.73 6.53284 354.668 5.46446L353.249 6.87481ZM351.152 5.82617C352.093 5.82617 352.696 6.11927 353.143 6.74875L354.774 5.59051C353.885 4.33893 352.616 3.82617 351.152 3.82617V5.82617ZM348.92 6.74049C349.522 6.13494 350.331 5.82617 351.152 5.82617V3.82617C349.834 3.82617 348.503 4.32327 347.502 5.33015L348.92 6.74049ZM395.796 48.2883H396.999V46.2883H395.796V48.2883ZM383.06 63.2032C386.869 63.3476 390.017 62.1059 392.361 59.3785C394.664 56.6985 396.108 52.6803 396.788 47.4164L394.805 47.1602C394.148 52.2428 392.785 55.8167 390.844 58.075C388.944 60.2859 386.411 61.3288 383.136 61.2046L383.06 63.2032ZM375.077 57.0438C375.729 58.7924 376.694 60.2335 378.034 61.2921C379.375 62.3514 381.031 62.9791 382.987 63.1977L383.209 61.2101C381.556 61.0254 380.272 60.5109 379.273 59.7226C378.274 58.9334 377.501 57.8215 376.951 56.3448L375.077 57.0438ZM373.276 43.5258C373.276 49.077 373.812 53.6523 375.077 57.0438L376.951 56.3448C375.81 53.2865 375.276 48.993 375.276 43.5258H373.276ZM376.43 28.1269C375.289 29.58 374.512 31.6364 374.013 34.179C373.512 36.7341 373.276 39.861 373.276 43.5258H375.276C375.276 39.9342 375.508 36.9472 375.976 34.5641C376.446 32.1684 377.139 30.4624 378.003 29.3621L376.43 28.1269ZM383.633 23.982C380.953 23.982 378.552 25.4252 376.43 28.1268L378.003 29.3622C379.891 26.9579 381.769 25.982 383.633 25.982V23.982ZM388.041 24.9414C386.754 24.1332 385.326 23.8368 383.55 23.9855L383.716 25.9785C385.148 25.8586 386.126 26.1002 386.977 26.6351L388.041 24.9414ZM389.979 27.9383C389.979 26.6254 389.091 25.6929 388.092 24.976L386.926 26.6005C387.799 27.2274 387.979 27.6387 387.979 27.9383H389.979ZM388.867 30.113C389.178 29.9048 389.469 29.6215 389.677 29.2336C389.884 28.8465 389.979 28.4101 389.979 27.9383H387.979C387.979 28.1384 387.941 28.2396 387.914 28.2892C387.888 28.3381 387.845 28.3908 387.754 28.4512L388.867 30.113ZM388.31 30.8209C388.675 30.3329 388.908 30.1002 389.02 29.9876L387.602 28.5766C387.447 28.7326 387.146 29.0379 386.708 29.6244L388.31 30.8209ZM387.44 32.6413C387.44 32.6445 387.44 32.6025 387.464 32.5049C387.488 32.4109 387.529 32.2823 387.597 32.1174C387.734 31.7869 387.968 31.34 388.342 30.7753L386.676 29.6699C386.248 30.3148 385.947 30.8758 385.75 31.3515C385.56 31.8095 385.44 32.2517 385.44 32.6413H387.44ZM388.084 35.1612C387.669 34.7437 387.322 33.9841 387.435 32.7311L385.444 32.5514C385.29 34.2548 385.745 35.6456 386.667 36.5718L388.084 35.1612ZM390.071 35.8132C389.181 35.9127 388.544 35.6236 388.084 35.1612L386.666 36.5718C387.543 37.4532 388.778 37.97 390.293 37.8009L390.071 35.8132ZM392.174 34.7498C391.678 35.4479 391.036 35.8071 390.182 35.8071V37.8071C391.735 37.8071 392.964 37.091 393.805 35.908L392.174 34.7498ZM392.925 31.8351C392.925 33.0219 392.696 33.9079 392.14 34.8008L393.839 35.8571C394.62 34.6002 394.925 33.3358 394.925 31.8351H392.925ZM390.438 26.7903C392.002 28.2412 392.81 29.8863 392.927 31.8935L394.924 31.7766C394.774 29.2151 393.71 27.0982 391.798 25.3242L390.438 26.7903ZM384.168 24.6386C386.786 24.6386 388.927 25.3882 390.438 26.7903L391.798 25.3242C389.834 23.5013 387.163 22.6386 384.168 22.6386V24.6386ZM376.53 26.6445C379.043 25.1291 381.521 24.5127 384.12 24.6374L384.216 22.6397C381.2 22.495 378.331 23.2225 375.497 24.932L376.53 26.6445ZM370.485 33.2366C372.01 30.2993 374.024 28.1564 376.53 26.6445L375.497 24.932C372.656 26.6457 370.394 29.0714 368.71 32.3153L370.485 33.2366ZM368.058 43.5258C368.058 39.5203 368.955 36.1848 370.485 33.2366L368.71 32.3153C367.032 35.5483 366.058 39.1998 366.058 43.5258H368.058ZM369.958 53.2927C368.582 50.5255 368.058 47.3369 368.058 43.5258H366.058C366.058 47.5083 366.603 51.038 368.168 54.1833L369.958 53.2927ZM375.368 59.7604C373.134 58.2637 371.368 56.1268 369.958 53.2927L368.168 54.1833C369.699 57.2618 371.675 59.6936 374.254 61.4218L375.368 59.7604ZM383.008 62.2797C380.095 62.1524 377.62 61.3951 375.398 59.7819L374.223 61.4002C376.813 63.2813 379.684 64.1364 382.921 64.2778L383.008 62.2797ZM396.008 47.1544C395.286 52.4997 393.793 56.3089 391.638 58.7542C389.518 61.159 386.673 62.3417 382.982 62.2789L382.947 64.2786C387.142 64.35 390.579 62.9796 393.138 60.0766C395.661 57.2142 397.242 52.961 397.99 47.4221L396.008 47.1544ZM33.522 50.2466L48.2458 3.20468L46.3371 2.60727L31.6133 49.6492L33.522 50.2466ZM16.5378 3.21119L31.6154 50.2531L33.5199 49.6427L18.4424 2.60075L16.5378 3.21119ZM1 3.90597H17.4901V1.90597H1V3.90597ZM2 4.42723V2.90597H0V4.42723H2ZM8.18518 3.42723H1V5.42723H8.18518V3.42723ZM9.18518 51.3521V4.42723H7.18518V51.3521H9.18518ZM8.043 58.7693C8.82911 56.9476 9.18518 54.4479 9.18518 51.3521H7.18518C7.18518 54.3409 6.83435 56.5223 6.20668 57.9769L8.043 58.7693ZM1.03432 62.0642C4.51528 61.9447 7.08776 60.9843 8.04309 58.7691L6.20659 57.9771C5.74876 59.0387 4.31552 59.9504 0.965684 60.0654L1.03432 62.0642ZM2 62.469V61.0648H0V62.469H2ZM18.0795 61.469H1V63.469H18.0795V61.469ZM17.0795 60.9475V62.469H19.0795V60.9475H17.0795ZM17.4901 61.9475H18.0795V59.9475H17.4901V61.9475ZM15.606 61.8306C16.4795 61.8306 16.9244 61.8374 17.2491 61.9181L17.7311 59.977C17.1139 59.8237 16.3813 59.8306 15.606 59.8306V61.8306ZM10.0792 58.2662C10.8474 60.2508 12.7905 61.4412 15.4655 61.8207L15.7464 59.8405C13.4738 59.5181 12.3538 58.6019 11.9444 57.5443L10.0792 58.2662ZM9.0696 50.8839C9.0696 53.9897 9.42825 56.4564 10.0708 58.2436L11.9528 57.5669C11.4172 56.0772 11.0696 53.8635 11.0696 50.8839H9.0696ZM9.0696 4.66128V50.8839H11.0696V4.66128H9.0696ZM30.3374 63.2102L11.0197 4.34945L9.11946 4.97311L28.4371 63.8338L30.3374 63.2102ZM30.0942 62.522H29.3873V64.522H30.0942V62.522ZM47.5149 4.71271L29.1401 63.2224L31.0482 63.8216L49.423 5.31195L47.5149 4.71271ZM49.469 61.0648V5.01233H47.469V61.0648H49.469ZM41.0485 62.0648H48.469V60.0648H41.0485V62.0648ZM42.0485 62.469V61.0648H40.0485V62.469H42.0485ZM63.4284 61.469H41.0485V63.469H63.4284V61.469ZM62.4284 61.0648V62.469H64.4284V61.0648H62.4284ZM55.8901 62.0648H63.4284V60.0648H55.8901V62.0648ZM54.8901 4.42723V61.0648H56.8901V4.42723H54.8901ZM63.4284 3.42723H55.8901V5.42723H63.4284V3.42723ZM62.4284 2.90597V4.42723H64.4284V2.90597H62.4284ZM47.2915 3.90597H63.4284V1.90597H47.2915V3.90597ZM75.6784 3.42723H68.4932V5.42723H75.6784V3.42723ZM76.6784 60.9475V4.42723H74.6784V60.9475H76.6784ZM68.4932 61.9475H75.6784V59.9475H68.4932V61.9475ZM69.4932 62.352V60.9475H67.4932V62.352H69.4932ZM92.7582 61.352H68.4932V63.352H92.7582V61.352ZM110.311 56.8614C106.187 59.851 100.417 61.352 92.7582 61.352V63.352C100.648 63.352 106.892 61.8102 111.485 58.4806L110.311 56.8614ZM118.786 45.9946C117.333 50.2153 114.532 53.8014 110.311 56.8613L111.485 58.4806C115.98 55.222 119.068 51.3187 120.678 46.6458L118.786 45.9946ZM120.852 32.7719C120.967 37.214 120.28 41.6585 118.786 45.9946L120.678 46.6458C122.247 42.0882 122.973 37.4058 122.852 32.7203L120.852 32.7719ZM113.316 10.575C118.411 14.866 121.085 22.1148 120.852 32.7242L122.852 32.768C123.091 21.8455 120.347 13.8818 114.605 9.04529L113.316 10.575ZM96.4096 3.90597C102.381 3.90597 108.049 6.13878 113.316 10.575L114.605 9.04528C109.035 4.35392 102.923 1.90597 96.4096 1.90597V3.90597ZM94.407 3.90597H96.4096V1.90597H94.407V3.90597ZM92.9938 3.90597H94.407V1.90597H92.9938V3.90597ZM68.4932 3.90597H92.9938V1.90597H68.4932V3.90597ZM69.4932 4.42723V2.90597H67.4932V4.42723H69.4932ZM83.4527 62.0648H92.8757V60.0648H83.4527V62.0648ZM83.3352 62.0648H83.4527V60.0648H83.3352V62.0648ZM82.3352 4.54425V61.0648H84.3352V4.54425H82.3352ZM92.7582 3.54425H83.3352V5.54425H92.7582V3.54425ZM102.993 5.87866C99.6623 4.16296 96.3126 3.4219 92.724 3.54484L92.7924 5.54367C96.0358 5.43255 99.047 6.09575 102.077 7.6566L102.993 5.87866ZM111.212 15.1148C109.144 10.7645 106.42 7.64399 102.993 5.87864L102.077 7.65662C105.01 9.16777 107.469 11.8983 109.406 15.9734L111.212 15.1148ZM114.136 32.8793C114.255 25.5435 113.306 19.6423 111.217 15.1243L109.401 15.9639C111.317 20.1053 112.253 25.672 112.136 32.8468L114.136 32.8793ZM92.8757 62.0648C99.7952 62.0648 105.159 59.613 108.764 54.6139C112.326 49.6747 114.076 42.3799 114.136 32.8693L112.136 32.8568C112.078 42.1862 110.353 48.9922 107.142 53.444C103.974 57.8358 99.2665 60.0648 92.8757 60.0648V62.0648ZM170.735 19.2249H169.204V21.2249H170.735V19.2249ZM169.029 1.77397L169.736 20.2631L171.734 20.1867L171.028 1.69759L169.029 1.77397ZM168.615 2.73578H170.029V0.735779H168.615V2.73578ZM166.809 5.72758C167.659 5.44629 168.392 4.99078 168.9 4.2751C169.407 3.56202 169.615 2.697 169.615 1.73578H167.615C167.615 2.41283 167.47 2.83502 167.27 3.1166C167.072 3.39558 166.744 3.64219 166.18 3.82897L166.809 5.72758ZM163.458 5.20578C164.57 5.75776 165.598 5.91565 166.635 5.76835L166.354 3.7882C165.743 3.87495 165.122 3.79879 164.348 3.41462L163.458 5.20578ZM158.927 3.47888C160.358 4.07142 161.906 4.66261 163.569 5.25264L164.238 3.36776C162.603 2.78759 161.087 2.20861 159.692 1.63095L158.927 3.47888ZM152.713 2.73578C155.389 2.73578 157.489 2.97025 158.975 3.49736L159.644 1.61247C157.831 0.969384 155.456 0.735779 152.713 0.735779V2.73578ZM140.134 7.20652C143.723 4.42069 147.996 2.96006 152.761 2.73466L152.666 0.736896C147.536 0.979573 142.857 2.56144 138.908 5.62658L140.134 7.20652ZM131.605 18.5146C133.664 13.7403 136.51 10.0194 140.134 7.20652L138.908 5.62659C134.993 8.66474 131.949 12.667 129.768 17.7224L131.605 18.5146ZM128.624 34.1503C128.624 28.4255 129.66 23.288 131.612 18.4958L129.76 17.7412C127.708 22.7787 126.624 28.1729 126.624 34.1503H128.624ZM135.03 54.2758C130.919 48.604 128.739 41.9033 128.624 34.1355L126.624 34.1651C126.745 42.3119 129.04 49.4192 133.41 55.4494L135.03 54.2758ZM153.656 62.639C145.196 62.639 139.043 59.7019 135.024 54.268L133.416 55.4572C137.879 61.4914 144.683 64.639 153.656 64.639V62.639ZM164.742 60.0581C161.475 61.7368 157.746 62.639 153.656 62.639V64.639C158.046 64.639 162.091 63.669 165.656 61.837L164.742 60.0581ZM169.21 58.7852C167.946 58.628 166.418 59.1058 164.705 60.0779L165.693 61.8172C167.278 60.9173 168.341 60.6926 168.963 60.7699L169.21 58.7852ZM172.555 62.3779C172.478 61.5339 172.162 60.7693 171.593 60.1434C171.032 59.5261 170.271 59.0941 169.378 58.8212L168.794 60.7339C169.432 60.9289 169.85 61.199 170.113 61.4887C170.368 61.7697 170.523 62.1169 170.564 62.5601L172.555 62.3779ZM173.091 61.469H171.56V63.469H173.091V61.469ZM172.445 43.2594L172.091 62.4506L174.091 62.4874L174.444 43.2963L172.445 43.2594ZM171.795 44.2778H173.445V42.2778H171.795V44.2778ZM165.668 57.7956C169.252 54.2351 171.688 49.3585 172.779 43.4597L170.812 43.096C169.782 48.6647 167.507 53.1496 164.258 56.3767L165.668 57.7956ZM153.656 63.2348C158.095 63.2348 162.106 61.3344 165.668 57.7956L164.258 56.3767C160.989 59.6249 157.461 61.2348 153.656 61.2348V63.2348ZM141.268 57.0708C145.044 61.0642 149.177 63.2348 153.656 63.2348V61.2348C149.889 61.2348 146.248 59.4267 142.721 55.6967L141.268 57.0708ZM135.223 33.107C135.282 39.0064 135.816 43.9467 136.814 47.9238C137.809 51.8932 139.281 54.9702 141.268 57.0708L142.721 55.6967C141.056 53.9359 139.702 51.2206 138.753 47.4374C137.807 43.662 137.281 38.8895 137.223 33.0869L135.223 33.107ZM137.977 12.9066C135.942 19.4459 134.984 26.2281 135.223 33.1317L137.222 33.0623C136.991 26.3917 137.916 19.8336 139.886 13.5007L137.977 12.9066ZM152.31 2.02427C148.682 2.20749 145.619 3.19019 143.187 5.03458C140.751 6.88083 139.027 9.53017 137.977 12.9066L139.886 13.5008C140.838 10.4411 142.354 8.17564 144.395 6.62833C146.438 5.07916 149.088 4.18955 152.41 4.02172L152.31 2.02427ZM165.209 7.73768C162.494 3.62854 158.109 1.77906 152.318 2.02389L152.402 4.0221C157.683 3.79884 161.307 5.45997 163.54 8.84009L165.209 7.73768ZM170.19 20.0595C169.458 15.6938 167.751 11.5854 165.209 7.73772L163.54 8.84004C165.946 12.4816 167.536 16.3305 168.217 20.3903L170.19 20.0595Z" fill="black" mask="url(#path-1-outside-1_1164_10602)"/>
</svg>
