<svg width="119" height="30" viewBox="0 0 119 30" fill="none" xmlns="http://www.w3.org/2000/svg">
<path fill-rule="evenodd" clip-rule="evenodd" d="M9.48625 14.488L13.9108 0.351649H18.7601V0.808794H16.4948V17.8287H18.7601V18.2507H12.0348V17.8287H14.2647V0.98462L8.74295 18.5671H8.53052L2.72546 0.879128V14.7693C2.72546 15.6836 2.83158 16.3869 3.0086 16.8792C3.18553 17.3363 3.64578 17.6529 4.38918 17.7583H4.38922C4.63693 17.7583 4.81385 17.7583 4.95536 17.7934H5.13248V18.2507H0V17.8287C1.02635 17.7934 1.62822 17.5122 1.84055 17.0198C2.05297 16.5275 2.15918 15.8242 2.15918 14.91V0.808794H0V0.351649H4.95536L9.48625 14.488ZM22.4413 0.808794H20.2821V0.351649H27.6446H28.0693H28.6711C30.547 0.351649 32.3169 1.05494 33.9453 2.42639C35.5735 3.79782 36.3875 6.08354 36.3167 9.31876C36.3521 10.6902 36.1398 12.0615 35.6796 13.3978C35.2194 14.7341 34.3345 15.8594 33.0248 16.8088C31.7152 17.7583 29.91 18.2155 27.5738 18.2155H20.2821V17.7934H22.4413V0.808794ZM24.7775 17.8287H27.6091C31.609 17.8287 33.662 15.0154 33.6974 9.35391C33.7328 7.17365 33.4497 5.45057 32.8479 4.14947C32.2462 2.88353 31.4674 2.0044 30.5117 1.5121C29.5561 1.01979 28.6004 0.808794 27.5738 0.843961H24.7422V17.8287H24.7775ZM51.0063 5.55607H50.5461C50.3337 4.29013 49.8382 3.09451 49.0949 1.96924C48.3516 0.843961 47.1481 0.316484 45.4845 0.386814C43.3961 0.492309 42.0509 1.51209 41.4492 3.44617C40.8475 5.38024 40.5643 7.38464 40.6351 9.4242C40.6705 12.9407 41.2723 15.2616 42.3696 16.422C43.4669 17.5825 44.635 18.1803 45.8738 18.1803C47.1127 18.1803 48.2453 17.6528 49.2718 16.6331C50.2983 15.6132 51.0063 14.2066 51.3249 12.4836H51.8205L51.7143 18.2507H51.254C51.2186 17.8638 50.9709 17.5825 50.5107 17.4419C50.2276 17.4066 49.8382 17.5122 49.3427 17.7934C48.3162 18.3209 47.1481 18.6022 45.8738 18.6022C43.2545 18.6022 41.3076 17.688 40.0334 15.9649C38.7591 14.2066 38.0866 12.1319 38.0512 9.74073C38.0512 7.98245 38.3697 6.40002 38.9714 4.9231C39.6086 3.44617 40.4936 2.28573 41.6263 1.4066C42.7589 0.527473 44.104 0.0703295 45.5907 0C46.4048 0 47.0772 0.0703295 47.5728 0.246155C47.9975 0.42198 48.4578 0.597801 48.9533 0.773627C49.2365 0.914286 49.4843 0.949453 49.732 0.914286C50.1568 0.773627 50.3692 0.492309 50.3692 0H50.794L51.0063 5.55607ZM72.4858 5.53203H72.044C71.8432 4.2802 71.3612 3.06883 70.6381 1.93819C69.9152 0.807544 68.7101 0.282636 67.1034 0.363358C65.0548 0.444187 63.7695 1.494 63.167 3.39193C62.5644 5.33012 62.3235 7.30878 62.3636 9.32779C62.4038 12.8004 62.9662 15.1425 64.0506 16.3135C65.1352 17.4846 66.2599 18.0498 67.505 18.0498C68.7101 18.0498 69.8348 17.5249 70.839 16.5154C71.8432 15.4656 72.526 14.0926 72.8474 12.3966H73.3294L73.1687 18.1306H72.7269C72.6867 17.7269 72.4457 17.4441 72.0038 17.323C71.7227 17.2827 71.3612 17.4037 70.8792 17.6864C69.875 18.2114 68.7503 18.494 67.4649 18.494C64.8942 18.494 63.0064 17.6057 61.7611 15.8693C60.4758 14.0926 59.8331 12.0333 59.7929 9.65079C59.7929 7.91441 60.1142 6.33968 60.7167 4.88594C61.3193 3.4323 62.2029 2.26129 63.2875 1.37292C64.4122 0.484548 65.6975 0.0403613 67.1436 0C67.947 0 68.5896 0.0807231 69.0716 0.242274C69.5134 0.403719 69.9553 0.56527 70.3972 0.767182C70.6783 0.888372 70.9193 0.969094 71.1603 0.928732C71.562 0.807543 71.7629 0.484547 71.7629 0H72.1645L72.4858 5.53203ZM76.9444 17.7672V0.605632H75.1771V0.242274H78.7922V17.7672H80.5997V18.171H75.1771V17.7672H76.9444ZM83.9336 17.7672V7.34914H82.1663V6.94531H85.7813V17.8076H87.5889V18.2114H82.2065V17.8076C82.2065 17.7672 83.9336 17.7672 83.9336 17.7672ZM83.3311 2.22082C83.3311 1.85747 83.4516 1.53436 83.6927 1.29209C83.9336 1.04982 84.2549 0.928732 84.5763 0.928732C84.9378 0.928732 85.2191 1.04982 85.4198 1.33245C85.6609 1.57483 85.7411 1.89783 85.7411 2.26129C85.7411 2.58429 85.6207 2.86692 85.3797 3.10919C85.1387 3.35147 84.8575 3.51302 84.5362 3.51302C84.2149 3.51302 83.9336 3.39193 83.6525 3.14956C83.4918 2.86692 83.3311 2.54392 83.3311 2.22082ZM92.9714 17.7672H94.7789V18.171H89.3563V17.7672H91.1237V7.34914H89.3563V6.94531H92.9714V8.92397C93.2525 8.27787 93.6943 7.75296 94.2567 7.30878C94.8191 6.86459 95.4618 6.62232 96.1044 6.62232C96.9078 6.62232 97.5906 6.86459 98.153 7.3895C98.7153 7.91441 99.0367 8.56051 99.1572 9.32779C99.2375 9.85265 99.2375 10.7006 99.2375 11.7906V11.7909V17.7672H101.005V18.171H95.6224V17.7672H97.43V10.418C97.43 9.32779 97.3496 8.5605 97.2291 8.0356C97.1086 7.55105 96.7069 7.22795 96.1044 7.10686C95.4216 6.94531 94.7387 7.26841 94.0158 7.99523C93.3329 8.72206 92.9714 9.93342 92.9714 11.5486V17.7672ZM104.58 17.7672V7.34914H102.812V6.94531H106.428V17.8076H108.275V18.2114H102.853V17.8076C102.853 17.7672 104.58 17.7672 104.58 17.7672ZM103.977 2.22082C103.977 1.85747 104.098 1.53436 104.339 1.29209C104.58 1.04982 104.901 0.928732 105.222 0.928732C105.584 0.928732 105.865 1.04982 106.066 1.33245C106.307 1.57483 106.387 1.89783 106.387 2.26129C106.387 2.58429 106.267 2.86692 106.026 3.10919C105.785 3.35147 105.504 3.51302 105.182 3.51302C104.861 3.51302 104.58 3.39193 104.299 3.14956C104.138 2.86692 103.977 2.54392 103.977 2.22082ZM118.639 13.6888H119C118.558 16.9596 117.152 18.5344 114.782 18.494C113.858 18.4537 113.055 18.2114 112.332 17.6864C111.609 17.2018 111.047 16.5154 110.605 15.627C110.163 14.7386 110.003 13.7292 110.003 12.5582C110.003 11.3063 110.284 10.2565 110.766 9.32779C111.248 8.39906 111.89 7.7126 112.694 7.22795C113.497 6.7434 114.301 6.54149 115.144 6.58195C115.988 6.58195 116.71 6.82423 117.233 7.30878C117.755 7.79332 118.036 8.35859 118.076 9.04505C118.076 9.44887 117.996 9.77198 117.795 10.095C117.594 10.3776 117.313 10.5392 116.951 10.5392C116.59 10.5795 116.309 10.4584 116.108 10.2565C115.907 10.0546 115.787 9.73151 115.827 9.28732C115.827 9.16624 115.907 8.92397 116.148 8.5605C116.269 8.39906 116.349 8.31823 116.389 8.27787C116.51 8.19715 116.59 8.07596 116.59 7.87405C116.59 7.63177 116.429 7.42986 116.148 7.22795C115.827 7.02614 115.465 6.94531 114.983 6.98567C114.301 6.98567 113.658 7.34914 113.055 8.11632C112.453 8.88361 112.172 10.3776 112.172 12.5582C112.172 14.2137 112.332 15.5463 112.694 16.5154C113.055 17.4846 113.738 18.0498 114.823 18.171C116.951 18.2518 118.237 16.798 118.639 13.6888ZM1.96366 23.5907L1.32873 28.0449H1.76011L2.19454 24.8351L3.79553 28.0449H3.90792L5.48764 24.8593L5.9251 28.0449H6.36559L5.7246 23.5907H5.65169L3.85324 27.2454L2.03657 23.5907H1.96366ZM9.90066 26.9513L10.2591 27.139C10.1417 27.3692 10.006 27.5548 9.85206 27.6961C9.69813 27.8375 9.52497 27.9454 9.33257 28.0201C9.14017 28.0928 8.92246 28.1292 8.67942 28.1292C8.14069 28.1292 7.71944 27.9536 7.41564 27.6022C7.11185 27.249 6.95997 26.8503 6.95997 26.4062C6.95997 25.9884 7.08857 25.6159 7.34577 25.2889C7.67184 24.8731 8.1083 24.6651 8.65512 24.6651C9.21814 24.6651 9.66775 24.8781 10.004 25.304C10.2429 25.6048 10.3644 25.9802 10.3685 26.4304H7.39742C7.40552 26.8141 7.52805 27.1289 7.76501 27.3751C8.00197 27.6195 8.29461 27.7415 8.64296 27.7415C8.81106 27.7415 8.97409 27.7122 9.13207 27.6538C9.29206 27.5953 9.42776 27.5174 9.53915 27.4206C9.65053 27.3237 9.77105 27.1673 9.90066 26.9513ZM9.90066 26.064C9.84396 25.8379 9.76091 25.6573 9.65155 25.5221C9.54421 25.3869 9.40143 25.2777 9.22321 25.195C9.04498 25.1122 8.85765 25.0709 8.66119 25.0709C8.33715 25.0709 8.05867 25.1748 7.82576 25.3828C7.65564 25.5341 7.52704 25.7612 7.43995 26.064H9.90066ZM12.4056 24.7501L11.1296 27.6842H10.7286V28.4837H11.1479V28.0446H13.8821V28.4655H14.2921V27.6842H13.8941L12.6273 24.7501H12.4056ZM11.5428 27.6842L12.5088 25.4042L13.4355 27.6842H11.5428ZM15.2318 24.7501V27.1876L17.6591 24.7501H17.6926V28.0446H17.2673V25.6282L14.8581 28.0446H14.8065V24.7501H15.2318ZM18.5788 28.0446H21.6684V28.5654H22.0694V27.6449H21.3556V24.7501H20.9272V27.6449H19.0072V24.7501H18.5788V28.0446ZM23.0062 24.7501V27.1876L25.4335 24.7501H25.467V28.0446H25.0416V25.6282L22.6326 28.0446H22.5808V24.7501H23.0062ZM26.7803 26.4579H28.7003V28.0446H29.1257V24.7501H28.7003V26.0583H26.7803V24.7501H26.3521V28.0446H26.7803V26.4579ZM33.2229 25.4343L32.8857 25.6431C32.5941 25.2576 32.1962 25.0648 31.6919 25.0648C31.2888 25.0648 30.9536 25.194 30.6863 25.4524C30.421 25.7108 30.2884 26.0247 30.2884 26.3942C30.2884 26.6343 30.3491 26.8604 30.4706 27.0723C30.5942 27.2844 30.7623 27.4489 30.9749 27.566C31.1896 27.683 31.4295 27.7415 31.6949 27.7415C32.1809 27.7415 32.5779 27.5488 32.8857 27.1632L33.2229 27.3842C33.065 27.6205 32.8524 27.8041 32.585 27.9353C32.3197 28.0646 32.0169 28.1292 31.6766 28.1292C31.1541 28.1292 30.7207 27.9636 30.3765 27.6325C30.0321 27.3015 29.86 26.8987 29.86 26.4243C29.86 26.1055 29.94 25.8097 30.1 25.5372C30.262 25.2627 30.4838 25.0487 30.7653 24.8952C31.0468 24.7419 31.3618 24.6651 31.71 24.6651C31.9288 24.6651 32.1394 24.6984 32.342 24.7651C32.5465 24.8316 32.7196 24.9184 32.8614 25.0254C33.0032 25.1325 33.1237 25.2687 33.2229 25.4343ZM34.4096 24.7501H33.9813V28.0446H34.4096V26.6396L34.5433 26.5215L36.0622 28.0446H36.6637L34.8562 26.258L36.53 24.7501H35.9376L34.4096 26.137V24.7501ZM37.4661 24.7501V27.1876L39.8935 24.7501H39.9269V28.0446H39.5016V25.6282L37.0926 28.0446H37.0408V24.7501H37.4661ZM41.2384 27.1872V24.7497H40.8132V28.0442H40.8648L43.2738 25.6278V28.0442H43.6992V24.7497H43.6657L41.2384 27.1872ZM41.5817 23.4265H41.1807C41.2314 23.6122 41.3508 23.7656 41.5392 23.8867C41.7275 24.0059 41.9705 24.0654 42.2683 24.0654C42.568 24.0654 42.809 24.0048 42.9913 23.8837C43.1756 23.7606 43.29 23.6081 43.3346 23.4265H42.9458C42.8567 23.5435 42.7624 23.6253 42.6633 23.6718C42.564 23.7182 42.4334 23.7413 42.2714 23.7413C42.1113 23.7413 41.9736 23.7151 41.8581 23.6626C41.7427 23.6102 41.6506 23.5315 41.5817 23.4265ZM46.2756 27.6842L47.5515 24.7501H47.7733L49.0401 27.6842H49.438V28.4655H49.0279V28.0446H46.2937V28.4837H45.8745V27.6842H46.2756ZM47.6548 25.4042L46.6887 27.6842H48.5813L47.6548 25.4042ZM50.3776 27.1876V24.7501H49.9523V28.0446H50.0041L52.4131 25.6282V28.0446H52.8384V24.7501H52.805L50.3776 27.1876ZM57.0175 24.7499V28.0444H56.5983V27.4782C56.4202 27.6941 56.2197 27.8566 55.9969 27.9656C55.7762 28.0746 55.5341 28.1292 55.2709 28.1292C54.8029 28.1292 54.4029 27.9607 54.0708 27.6235C53.7407 27.2844 53.5756 26.8725 53.5756 26.3881C53.5756 25.9137 53.7427 25.5079 54.0769 25.1708C54.411 24.8336 54.8131 24.6651 55.2829 24.6651C55.5543 24.6651 55.7994 24.7226 56.0181 24.8377C56.2389 24.9528 56.4323 25.1254 56.5983 25.3556V24.7499H57.0175ZM55.3164 25.0739C55.0794 25.0739 54.8607 25.1325 54.6601 25.2495C54.4596 25.3645 54.2997 25.5272 54.1801 25.737C54.0628 25.947 54.004 26.1691 54.004 26.4032C54.004 26.6354 54.0638 26.8574 54.1832 27.0693C54.3027 27.2813 54.4627 27.4469 54.6632 27.566C54.8657 27.683 55.0824 27.7415 55.3133 27.7415C55.5463 27.7415 55.767 27.683 55.9755 27.566C56.1842 27.4489 56.3442 27.2905 56.4555 27.0906C56.569 26.8907 56.6257 26.6656 56.6257 26.4153C56.6257 26.0337 56.4991 25.7149 56.246 25.4585C55.9949 25.2021 55.685 25.0739 55.3164 25.0739ZM58.3378 28.0446V25.1226H59.5863V24.7501H57.9155V28.0446H58.3378ZM62.4493 26.4579H60.5293V28.0446H60.101V24.7501H60.5293V26.0583H62.4493V24.7501H62.8746V28.0446H62.4493V26.4579ZM66.5914 25.2163C66.2572 24.8489 65.836 24.6651 65.3276 24.6651C64.8172 24.6651 64.395 24.8499 64.0608 25.2193C63.757 25.5544 63.6051 25.95 63.6051 26.4062C63.6051 26.8665 63.7652 27.2692 64.0851 27.6144C64.4072 27.9576 64.8213 28.1292 65.3276 28.1292C65.8319 28.1292 66.244 27.9576 66.5641 27.6144C66.886 27.2692 67.0471 26.8665 67.0471 26.4062C67.0471 25.9479 66.8952 25.5514 66.5914 25.2163ZM64.4193 25.4706C64.6724 25.2102 64.9752 25.0799 65.3276 25.0799C65.6779 25.0799 65.9798 25.2102 66.233 25.4706C66.4882 25.7309 66.6157 26.0459 66.6157 26.4153C66.6157 26.6535 66.558 26.8755 66.4425 27.0815C66.327 27.2874 66.1712 27.4469 65.9747 27.5599C65.7783 27.6709 65.5626 27.7264 65.3276 27.7264C65.0927 27.7264 64.877 27.6709 64.6805 27.5599C64.4841 27.4469 64.3282 27.2874 64.2128 27.0815C64.0973 26.8755 64.0396 26.6535 64.0396 26.4153C64.0396 26.0459 64.1661 25.7309 64.4193 25.4706ZM70.9863 25.4343L70.6491 25.6431C70.3574 25.2576 69.9594 25.0648 69.4551 25.0648C69.0522 25.0648 68.717 25.194 68.4496 25.4524C68.1844 25.7108 68.0516 26.0247 68.0516 26.3942C68.0516 26.6343 68.1124 26.8604 68.234 27.0723C68.3574 27.2844 68.5255 27.4489 68.7383 27.566C68.9529 27.683 69.1929 27.7415 69.4582 27.7415C69.9443 27.7415 70.3413 27.5488 70.6491 27.1632L70.9863 27.3842C70.8283 27.6205 70.6157 27.8041 70.3484 27.9353C70.083 28.0646 69.7803 28.1292 69.44 28.1292C68.9175 28.1292 68.4841 27.9636 68.1397 27.6325C67.7954 27.3015 67.6234 26.8987 67.6234 26.4243C67.6234 26.1055 67.7034 25.8097 67.8633 25.5372C68.0253 25.2627 68.2471 25.0487 68.5286 24.8952C68.8101 24.7419 69.1251 24.6651 69.4734 24.6651C69.6922 24.6651 69.9027 24.6984 70.1053 24.7651C70.3099 24.8316 70.483 24.9184 70.6248 25.0254C70.7666 25.1325 70.887 25.2687 70.9863 25.4343ZM73.5484 24.7501H71.3734V25.1165H72.2452V28.0446H72.6735V25.1165H73.5484V24.7501ZM74.4895 24.7501V27.1876L76.9169 24.7501H76.9502V28.0446H76.525V25.6282L74.1158 28.0446H74.0642V24.7501H74.4895ZM78.5672 26.5579H79.3146V28.0446H79.7368V24.7501H79.3146V26.1976H78.6918C78.4407 26.1976 78.2604 26.1521 78.151 26.0612C78.0416 25.9684 77.987 25.7301 77.987 25.3466V24.7501H77.5708V25.5737C77.5708 25.8826 77.6518 26.1238 77.8138 26.2974C77.9778 26.4711 78.2289 26.5579 78.5672 26.5579ZM83.406 26.9513L83.7646 27.139C83.6471 27.3692 83.5114 27.5548 83.3574 27.6961C83.2035 27.8375 83.0304 27.9454 82.838 28.0201C82.6456 28.0928 82.4278 28.1292 82.1848 28.1292C81.6461 28.1292 81.2248 27.9536 80.921 27.6022C80.6173 27.249 80.4653 26.8503 80.4653 26.4062C80.4653 25.9884 80.594 25.6159 80.8512 25.2889C81.1772 24.8731 81.6136 24.6651 82.1605 24.6651C82.7235 24.6651 83.1732 24.8781 83.5094 25.304C83.7483 25.6048 83.8698 25.9802 83.8739 26.4304H80.9028C80.9109 26.8141 81.0334 27.1289 81.2704 27.3751C81.5073 27.6195 81.8 27.7415 82.1483 27.7415C82.3164 27.7415 82.4794 27.7122 82.6375 27.6538C82.7974 27.5953 82.9331 27.5174 83.0445 27.4206C83.1559 27.3237 83.2764 27.1673 83.406 26.9513ZM83.406 26.064C83.3494 25.8379 83.2662 25.6573 83.1569 25.5221C83.0496 25.3869 82.9068 25.2777 82.7286 25.195C82.5504 25.1122 82.3631 25.0709 82.1666 25.0709C81.8425 25.0709 81.564 25.1748 81.3311 25.3828C81.161 25.5341 81.0324 25.7612 80.9453 26.064H83.406ZM87.4782 25.6431L87.8154 25.4343C87.7161 25.2687 87.5957 25.1325 87.4539 25.0254C87.3121 24.9184 87.1389 24.8316 86.9343 24.7651C86.7318 24.6984 86.5212 24.6651 86.3025 24.6651C85.9541 24.6651 85.6392 24.7419 85.3577 24.8952C85.0761 25.0487 84.8544 25.2627 84.6924 25.5372C84.5324 25.8097 84.4524 26.1055 84.4524 26.4243C84.4524 26.8987 84.6246 27.3015 84.9688 27.6325C85.3131 27.9636 85.7466 28.1292 86.2691 28.1292C86.6093 28.1292 86.9121 28.0646 87.1775 27.9353C87.4447 27.8041 87.6575 27.6205 87.8154 27.3842L87.4782 27.1632C87.1703 27.5488 86.7734 27.7415 86.2873 27.7415C86.022 27.7415 85.782 27.683 85.5673 27.566C85.3547 27.4489 85.1866 27.2844 85.063 27.0723C84.9415 26.8604 84.8807 26.6343 84.8807 26.3942C84.8807 26.0247 85.0134 25.7108 85.2787 25.4524C85.5461 25.194 85.8813 25.0648 86.2842 25.0648C86.7885 25.0648 87.1865 25.2576 87.4782 25.6431ZM88.5726 24.7501H89.0008V26.137L90.529 24.7501H91.1214L89.4474 26.258L91.255 28.0446H90.6534L89.1345 26.5215L89.0008 26.6396V28.0446H88.5726V24.7501ZM92.0587 27.1876V24.7501H91.6334V28.0446H91.685L94.0941 25.6282V28.0446H94.5194V24.7501H94.486L92.0587 27.1876ZM95.8311 24.7497V27.1872L98.2584 24.7497H98.2918V28.0442H97.8664V25.6278L95.4574 28.0442H95.4058V24.7497H95.8311ZM95.7734 23.4265H96.1744C96.2432 23.5315 96.3354 23.6102 96.4508 23.6626C96.5663 23.7151 96.704 23.7413 96.864 23.7413C97.026 23.7413 97.1567 23.7182 97.2559 23.6718C97.3552 23.6253 97.4492 23.5435 97.5384 23.4265H97.9272C97.8827 23.6081 97.7683 23.7606 97.584 23.8837C97.4017 24.0048 97.1607 24.0654 96.8609 24.0654C96.5632 24.0654 96.3203 24.0059 96.1318 23.8867C95.9435 23.7656 95.824 23.6122 95.7734 23.4265ZM100.841 28.0446H103.93V28.5654H104.331V27.6449H103.618V24.7501H103.189V27.6449H101.269V24.7501H100.841V28.0446ZM107.626 26.9513L107.984 27.139C107.867 27.3692 107.731 27.5548 107.577 27.6961C107.423 27.8375 107.25 27.9454 107.058 28.0201C106.865 28.0928 106.648 28.1292 106.405 28.1292C105.866 28.1292 105.445 27.9536 105.141 27.6022C104.837 27.249 104.685 26.8503 104.685 26.4062C104.685 25.9884 104.814 25.6159 105.071 25.2889C105.397 24.8731 105.833 24.6651 106.38 24.6651C106.943 24.6651 107.393 24.8781 107.729 25.304C107.968 25.6048 108.09 25.9802 108.094 26.4304H105.123C105.131 26.8141 105.253 27.1289 105.49 27.3751C105.727 27.6195 106.02 27.7415 106.368 27.7415C106.536 27.7415 106.699 27.7122 106.857 27.6538C107.017 27.5953 107.153 27.5174 107.264 27.4206C107.376 27.3237 107.496 27.1673 107.626 26.9513ZM107.626 26.064C107.569 25.8379 107.486 25.6573 107.377 25.5221C107.269 25.3869 107.127 25.2777 106.948 25.195C106.77 25.1122 106.583 25.0709 106.386 25.0709C106.062 25.0709 105.784 25.1748 105.551 25.3828C105.381 25.5341 105.252 25.7612 105.165 26.064H107.626ZM109.256 26.4579H111.176V28.0446H111.601V24.7501H111.176V26.0583H109.256V24.7501H108.828V28.0446H109.256V26.4579ZM112.118 24.7501H114.293V25.1165H113.418V28.0446H112.99V25.1165H112.118V24.7501ZM115.237 24.7499H114.815V29.2496H115.237V27.4782C115.416 27.6941 115.615 27.8566 115.836 27.9656C116.057 28.0746 116.299 28.1292 116.562 28.1292C117.03 28.1292 117.429 27.9607 117.759 27.6235C118.091 27.2844 118.257 26.8725 118.257 26.3881C118.257 25.9137 118.09 25.5079 117.756 25.1708C117.422 24.8336 117.02 24.6651 116.55 24.6651C116.28 24.6651 116.036 24.7226 115.818 24.8377C115.599 24.9528 115.406 25.1254 115.237 25.3556V24.7499ZM115.584 25.4585C115.837 25.2021 116.148 25.0739 116.516 25.0739C116.753 25.0739 116.972 25.1325 117.173 25.2495C117.373 25.3645 117.532 25.5272 117.65 25.737C117.769 25.947 117.829 26.1691 117.829 26.4032C117.829 26.6354 117.769 26.8574 117.65 27.0693C117.53 27.2813 117.369 27.4469 117.166 27.566C116.966 27.683 116.751 27.7415 116.522 27.7415C116.289 27.7415 116.068 27.683 115.857 27.566C115.649 27.4489 115.488 27.2905 115.374 27.0906C115.263 26.8907 115.207 26.6656 115.207 26.4153C115.207 26.0337 115.333 25.7149 115.584 25.4585Z" fill="white"/>
</svg>
