<svg width="35" height="22" viewBox="0 0 35 22" fill="none" xmlns="http://www.w3.org/2000/svg">
<path d="M17.4992 2.3525C18.7875 3.38089 19.8289 4.69384 20.5446 6.19198C21.2602 7.69013 21.6313 9.33419 21.6299 10.9997C21.6309 12.6648 21.2595 14.3082 20.5439 15.8057C19.8282 17.3033 18.7871 18.6157 17.4992 19.6438C16.2111 18.6155 15.1698 17.3028 14.4542 15.805C13.7386 14.3072 13.3673 12.6634 13.3685 10.9981C13.3673 9.33285 13.7386 7.6891 14.4542 6.19126C15.1698 4.69341 16.2111 3.38072 17.4992 2.3525ZM16.1149 1.41075C14.7512 2.59452 13.6565 4.06532 12.9065 5.72147C12.1565 7.37762 11.7691 9.17964 11.771 11.003C11.7691 12.8255 12.1563 14.6268 12.9057 16.2823C13.6551 17.9378 14.749 19.4083 16.1117 20.592C14.4655 21.5318 12.606 22.017 10.7182 21.9995C8.83034 21.982 6.9799 21.4624 5.35077 20.4922C3.72164 19.522 2.37058 18.1352 1.43187 16.4694C0.493171 14.8037 -0.000477443 12.9171 3.465e-07 10.9972C0.000478136 9.07733 0.495065 7.19101 1.4346 5.52576C2.37413 3.8605 3.72589 2.47431 5.35549 1.50498C6.9851 0.535652 8.83581 0.0169396 10.7236 0.000407915C12.6115 -0.0161238 14.4691 0.470101 16.1149 1.41075ZM18.8867 20.592C20.2494 19.4083 21.3433 17.9378 22.0927 16.2823C22.8421 14.6268 23.2293 12.8255 23.2274 11.003C23.2293 9.17964 22.8419 7.37762 22.0919 5.72147C21.3419 4.06532 20.2472 2.59452 18.8835 1.41075C20.5293 0.470101 22.3885 -0.0161238 24.2764 0.000407915C26.1642 0.0169396 28.0149 0.535652 29.6445 1.50498C31.2741 2.47431 32.6259 3.8605 33.5654 5.52576C34.5049 7.19101 34.9995 9.07733 35 10.9972C35.0005 12.9171 34.5068 14.8037 33.5681 16.4694C32.6294 18.1352 31.2784 19.522 29.6492 20.4922C28.0201 21.4624 26.1697 21.982 24.2818 21.9995C22.394 22.017 20.5345 21.5318 18.8883 20.592H18.8867Z" fill="#9F9F9E"/>
</svg>
