<svg width="70" height="70" viewBox="0 0 70 70" fill="none" xmlns="http://www.w3.org/2000/svg">
<circle opacity="0.3" cx="35" cy="35" r="35" fill="#D9D9D9"/>
<path d="M64 35C64 27.7599 61.2918 20.7817 56.4077 15.4371C51.5237 10.0924 44.8171 6.76804 37.6063 6.11736C30.3955 5.46667 23.2021 7.53676 17.4402 11.9207C11.6783 16.3047 7.76458 22.6853 6.46847 29.8085C5.17237 36.9316 6.58759 44.2819 10.436 50.4145C14.2843 56.5471 20.2875 61.0185 27.2653 62.9495C34.2431 64.8805 41.6909 64.1316 48.1445 60.85C54.5982 57.5684 59.5909 51.9914 62.1412 45.2153L35 35H64Z" fill="#FF3535"/>
<circle cx="35" cy="35" r="26" fill="#D9D9D9"/>
</svg>
