<svg width="10" height="11" viewBox="0 0 10 11" fill="none" xmlns="http://www.w3.org/2000/svg">
<path d="M9.63051 7.35813L7.51134 6.44957C7.26173 6.34155 6.96895 6.4144 6.79942 6.62495L5.93827 7.67609C4.58572 7.01205 3.48707 5.91229 2.823 4.56097L3.87399 3.70085C4.08396 3.52935 4.15544 3.23817 4.04927 2.98857L3.14086 0.869513C3.02183 0.597844 2.72874 0.449217 2.44183 0.515816L0.473052 0.9699C0.194729 1.03337 0 1.27848 0 1.5648C0 6.49234 4.00786 10.5 8.93566 10.5C9.22218 10.5 9.46652 10.3053 9.53039 10.027L9.9845 8.0583C10.0503 7.77218 9.90203 7.47531 9.63051 7.35813Z" fill="white"/>
</svg>
