<svg width="16" height="17" viewBox="0 0 16 17" fill="none" xmlns="http://www.w3.org/2000/svg">
<path d="M6.99918 0.0351563C8.85479 0.0374054 10.6338 0.775539 11.9459 2.08765C13.258 3.39977 13.9961 5.17873 13.9984 7.03434C13.9934 8.5417 13.4973 10.0064 12.5852 11.2065L15.7052 14.3265C15.7985 14.4192 15.8725 14.5294 15.9231 14.6508C15.9737 14.7723 15.9998 14.9025 16 15.034C16.0002 15.1655 15.9744 15.2958 15.9242 15.4173C15.8739 15.5389 15.8002 15.6493 15.7072 15.7423C15.6142 15.8353 15.5037 15.9091 15.3822 15.9593C15.2606 16.0096 15.1304 16.0353 14.9988 16.0352C14.8673 16.035 14.7371 16.0088 14.6157 15.9583C14.4943 15.9077 14.384 15.8336 14.2913 15.7404L11.1713 12.6204C9.97122 13.5325 8.50654 14.0286 6.99918 14.0335C5.14289 14.0335 3.36261 13.2961 2.05001 11.9835C0.737411 10.6709 0 8.89064 0 7.03434C0 5.17804 0.737411 3.39777 2.05001 2.08517C3.36261 0.772568 5.14289 0.0351563 6.99918 0.0351563ZM6.99918 12.0338C7.98798 12.0338 8.95456 11.7405 9.77671 11.1912C10.5989 10.6419 11.2396 9.86106 11.618 8.94753C11.9964 8.03401 12.0954 7.02879 11.9025 6.059C11.7096 5.08921 11.2335 4.1984 10.5343 3.49922C9.83512 2.80004 8.94431 2.32389 7.97452 2.13099C7.00473 1.93808 5.99951 2.03709 5.08599 2.41548C4.17247 2.79387 3.39166 3.43466 2.84232 4.25681C2.29298 5.07896 1.99977 6.04555 1.99977 7.03434C2.00132 8.35979 2.52855 9.63051 3.46578 10.5677C4.40302 11.505 5.67373 12.0322 6.99918 12.0338Z" fill="black"/>
</svg>
