<svg width="146" height="22" viewBox="0 0 146 22" fill="none" xmlns="http://www.w3.org/2000/svg">
<mask id="path-1-outside-1_298_391" maskUnits="userSpaceOnUse" x="-1" y="0" width="147" height="22" fill="black">
<rect fill="white" x="-1" width="147" height="22"/>
<path fill-rule="evenodd" clip-rule="evenodd" d="M9.99139 1.69311C10.2894 0.768964 11.5969 0.768964 11.8949 1.69311L13.7759 7.52675H19.8843C20.8512 7.52675 21.2552 8.76248 20.4751 9.33363L15.5267 12.9563L17.4128 18.8054C17.7103 19.728 16.6525 20.4918 15.8703 19.9192L10.9431 16.312L6.01595 19.9192C5.23374 20.4918 4.17598 19.728 4.47349 18.8054L6.35954 12.9563L1.41121 9.33363C0.631053 8.76248 1.03505 7.52675 2.00192 7.52675H8.11032L9.99139 1.69311ZM40.9914 1.69311C41.2894 0.768964 42.5969 0.768964 42.8949 1.69311L44.7759 7.52675H50.8843C51.8512 7.52675 52.2552 8.76248 51.4751 9.33363L46.5267 12.9563L48.4128 18.8054C48.7103 19.728 47.6525 20.4918 46.8703 19.9192L41.9431 16.312L37.0159 19.9192C36.2337 20.4918 35.176 19.728 35.4735 18.8054L37.3595 12.9563L32.4112 9.33363C31.6311 8.76248 32.035 7.52675 33.0019 7.52675H39.1103L40.9914 1.69311ZM73.8949 1.69311C73.5969 0.768964 72.2894 0.768964 71.9914 1.69311L70.1103 7.52675H64.0019C63.035 7.52675 62.6311 8.76248 63.4112 9.33363L68.3595 12.9563L66.4735 18.8054C66.176 19.728 67.2337 20.4918 68.016 19.9192L72.9431 16.312L77.8703 19.9192C78.6525 20.4918 79.7103 19.728 79.4128 18.8054L77.5267 12.9563L82.4751 9.33363C83.2552 8.76248 82.8512 7.52675 81.8843 7.52675H75.7759L73.8949 1.69311ZM102.991 1.69311C103.289 0.768964 104.597 0.768964 104.895 1.69311L106.776 7.52675H112.884C113.851 7.52675 114.255 8.76248 113.475 9.33363L108.527 12.9563L110.413 18.8054C110.71 19.728 109.653 20.4918 108.87 19.9192L103.943 16.312L99.0159 19.9192C98.2337 20.4918 97.176 19.728 97.4735 18.8054L99.3595 12.9563L94.4112 9.33363C93.6311 8.76248 94.035 7.52675 95.0019 7.52675H101.11L102.991 1.69311ZM135.895 1.69311C135.597 0.768964 134.289 0.768964 133.991 1.69311L132.11 7.52675H126.002C125.035 7.52675 124.631 8.76248 125.411 9.33363L130.36 12.9563L128.473 18.8054C128.176 19.728 129.234 20.4918 130.016 19.9192L134.943 16.312L139.87 19.9192C140.653 20.4918 141.71 19.728 141.413 18.8054L139.527 12.9563L144.475 9.33363C145.255 8.76248 144.851 7.52675 143.884 7.52675H137.776L135.895 1.69311Z"/>
</mask>
<path fill-rule="evenodd" clip-rule="evenodd" d="M9.99139 1.69311C10.2894 0.768964 11.5969 0.768964 11.8949 1.69311L13.7759 7.52675H19.8843C20.8512 7.52675 21.2552 8.76248 20.4751 9.33363L15.5267 12.9563L17.4128 18.8054C17.7103 19.728 16.6525 20.4918 15.8703 19.9192L10.9431 16.312L6.01595 19.9192C5.23374 20.4918 4.17598 19.728 4.47349 18.8054L6.35954 12.9563L1.41121 9.33363C0.631053 8.76248 1.03505 7.52675 2.00192 7.52675H8.11032L9.99139 1.69311ZM40.9914 1.69311C41.2894 0.768964 42.5969 0.768964 42.8949 1.69311L44.7759 7.52675H50.8843C51.8512 7.52675 52.2552 8.76248 51.4751 9.33363L46.5267 12.9563L48.4128 18.8054C48.7103 19.728 47.6525 20.4918 46.8703 19.9192L41.9431 16.312L37.0159 19.9192C36.2337 20.4918 35.176 19.728 35.4735 18.8054L37.3595 12.9563L32.4112 9.33363C31.6311 8.76248 32.035 7.52675 33.0019 7.52675H39.1103L40.9914 1.69311ZM73.8949 1.69311C73.5969 0.768964 72.2894 0.768964 71.9914 1.69311L70.1103 7.52675H64.0019C63.035 7.52675 62.6311 8.76248 63.4112 9.33363L68.3595 12.9563L66.4735 18.8054C66.176 19.728 67.2337 20.4918 68.016 19.9192L72.9431 16.312L77.8703 19.9192C78.6525 20.4918 79.7103 19.728 79.4128 18.8054L77.5267 12.9563L82.4751 9.33363C83.2552 8.76248 82.8512 7.52675 81.8843 7.52675H75.7759L73.8949 1.69311ZM102.991 1.69311C103.289 0.768964 104.597 0.768964 104.895 1.69311L106.776 7.52675H112.884C113.851 7.52675 114.255 8.76248 113.475 9.33363L108.527 12.9563L110.413 18.8054C110.71 19.728 109.653 20.4918 108.87 19.9192L103.943 16.312L99.0159 19.9192C98.2337 20.4918 97.176 19.728 97.4735 18.8054L99.3595 12.9563L94.4112 9.33363C93.6311 8.76248 94.035 7.52675 95.0019 7.52675H101.11L102.991 1.69311ZM135.895 1.69311C135.597 0.768964 134.289 0.768964 133.991 1.69311L132.11 7.52675H126.002C125.035 7.52675 124.631 8.76248 125.411 9.33363L130.36 12.9563L128.473 18.8054C128.176 19.728 129.234 20.4918 130.016 19.9192L134.943 16.312L139.87 19.9192C140.653 20.4918 141.71 19.728 141.413 18.8054L139.527 12.9563L144.475 9.33363C145.255 8.76248 144.851 7.52675 143.884 7.52675H137.776L135.895 1.69311Z" fill="#E73020"/>
<path d="M11.8949 1.69311L12.8466 1.38622V1.38622L11.8949 1.69311ZM9.99139 1.69311L10.9431 2V2L9.99139 1.69311ZM13.7759 7.52675L12.8242 7.83364L13.0477 8.52675H13.7759V7.52675ZM20.4751 9.33363L21.0658 10.1405V10.1405L20.4751 9.33363ZM15.5267 12.9563L14.936 12.1494L14.3534 12.576L14.575 13.2632L15.5267 12.9563ZM17.4128 18.8054L16.461 19.1123V19.1123L17.4128 18.8054ZM15.8703 19.9192L15.2796 20.726L15.2796 20.726L15.8703 19.9192ZM10.9431 16.312L11.5339 15.5051L10.9431 15.0726L10.3524 15.5051L10.9431 16.312ZM6.01595 19.9192L5.42523 19.1123H5.42523L6.01595 19.9192ZM4.47349 18.8054L3.52175 18.4985L3.52175 18.4985L4.47349 18.8054ZM6.35954 12.9563L7.31129 13.2632L7.53288 12.576L6.95026 12.1494L6.35954 12.9563ZM1.41121 9.33363L0.820488 10.1405L0.820488 10.1405L1.41121 9.33363ZM8.11032 7.52675V8.52675H8.83857L9.06206 7.83364L8.11032 7.52675ZM42.8949 1.69311L43.8466 1.38622V1.38622L42.8949 1.69311ZM40.9914 1.69311L40.0396 1.38621V1.38622L40.9914 1.69311ZM44.7759 7.52675L43.8242 7.83364L44.0477 8.52675H44.7759V7.52675ZM51.4751 9.33363L52.0658 10.1405V10.1405L51.4751 9.33363ZM46.5267 12.9563L45.936 12.1494L45.3534 12.576L45.575 13.2632L46.5267 12.9563ZM48.4128 18.8054L47.461 19.1123V19.1123L48.4128 18.8054ZM46.8703 19.9192L46.2796 20.726L46.8703 19.9192ZM41.9431 16.312L42.5339 15.5051L41.9431 15.0726L41.3524 15.5051L41.9431 16.312ZM37.0159 19.9192L36.4252 19.1123L37.0159 19.9192ZM35.4735 18.8054L36.4252 19.1123L35.4735 18.8054ZM37.3595 12.9563L38.3113 13.2632L38.5329 12.576L37.9503 12.1494L37.3595 12.9563ZM32.4112 9.33363L31.8205 10.1405V10.1405L32.4112 9.33363ZM39.1103 7.52675V8.52675H39.8386L40.0621 7.83364L39.1103 7.52675ZM71.9914 1.69311L71.0396 1.38621V1.38622L71.9914 1.69311ZM73.8949 1.69311L72.9431 2V2L73.8949 1.69311ZM70.1103 7.52675V8.52675H70.8386L71.0621 7.83364L70.1103 7.52675ZM63.4112 9.33363L62.8205 10.1405V10.1405L63.4112 9.33363ZM68.3595 12.9563L69.3113 13.2632L69.5329 12.576L68.9503 12.1494L68.3595 12.9563ZM66.4735 18.8054L65.5217 18.4985V18.4985L66.4735 18.8054ZM68.016 19.9192L68.6067 20.726L68.6067 20.726L68.016 19.9192ZM72.9431 16.312L73.5339 15.5051L72.9431 15.0726L72.3524 15.5051L72.9431 16.312ZM77.8703 19.9192L78.461 19.1123L77.8703 19.9192ZM79.4128 18.8054L78.461 19.1123V19.1123L79.4128 18.8054ZM77.5267 12.9563L76.936 12.1494L76.3534 12.576L76.575 13.2632L77.5267 12.9563ZM82.4751 9.33363L83.0658 10.1405V10.1405L82.4751 9.33363ZM75.7759 7.52675L74.8242 7.83364L75.0477 8.52675H75.7759V7.52675ZM104.895 1.69311L105.847 1.38622V1.38621L104.895 1.69311ZM102.991 1.69311L103.943 2V2L102.991 1.69311ZM106.776 7.52675L105.824 7.83364L106.048 8.52675H106.776V7.52675ZM113.475 9.33363L114.066 10.1405V10.1405L113.475 9.33363ZM108.527 12.9563L107.936 12.1494L107.353 12.576L107.575 13.2632L108.527 12.9563ZM110.413 18.8054L111.365 18.4985V18.4985L110.413 18.8054ZM108.87 19.9192L108.28 20.726V20.726L108.87 19.9192ZM103.943 16.312L104.534 15.5051L103.943 15.0726L103.352 15.5051L103.943 16.312ZM99.0159 19.9192L98.4252 19.1123L98.4252 19.1123L99.0159 19.9192ZM97.4735 18.8054L98.4252 19.1123V19.1123L97.4735 18.8054ZM99.3595 12.9563L100.311 13.2632L100.533 12.576L99.9503 12.1494L99.3595 12.9563ZM94.4112 9.33363L93.8205 10.1405V10.1405L94.4112 9.33363ZM101.11 7.52675V8.52675H101.839L102.062 7.83364L101.11 7.52675ZM133.991 1.69311L133.04 1.3862V1.38622L133.991 1.69311ZM135.895 1.69311L134.943 2L134.943 2L135.895 1.69311ZM132.11 7.52675V8.52675H132.839L133.062 7.83364L132.11 7.52675ZM125.411 9.33363L124.82 10.1405V10.1405L125.411 9.33363ZM130.36 12.9563L131.311 13.2632L131.533 12.576L130.95 12.1494L130.36 12.9563ZM128.473 18.8054L129.425 19.1123V19.1123L128.473 18.8054ZM130.016 19.9192L129.425 19.1123V19.1123L130.016 19.9192ZM134.943 16.312L135.534 15.5051L134.943 15.0726L134.352 15.5051L134.943 16.312ZM139.87 19.9192L140.461 19.1123L139.87 19.9192ZM141.413 18.8054L140.461 19.1123V19.1123L141.413 18.8054ZM139.527 12.9563L138.936 12.1494L138.353 12.576L138.575 13.2632L139.527 12.9563ZM144.475 9.33363L145.066 10.1405V10.1405L144.475 9.33363ZM137.776 7.52675L136.824 7.83364L137.048 8.52675H137.776V7.52675ZM12.8466 1.38622C12.2506 -0.462069 9.63563 -0.462074 9.03964 1.38622L10.9431 2V2L12.8466 1.38622ZM14.7277 7.21985L12.8466 1.38622L10.9431 2L12.8242 7.83364L14.7277 7.21985ZM19.8843 6.52675H13.7759V8.52675H19.8843V6.52675ZM21.0658 10.1405C22.6261 8.9982 21.8181 6.52675 19.8843 6.52675V8.52675V8.52675L21.0658 10.1405ZM16.1174 13.7632L21.0658 10.1405L19.8843 8.52675L14.936 12.1494L16.1174 13.7632ZM18.3645 18.4985L16.4785 12.6494L14.575 13.2632L16.461 19.1123L18.3645 18.4985ZM15.2796 20.726C16.844 21.8714 18.9595 20.3438 18.3645 18.4985L16.461 19.1123L16.461 19.1123L15.2796 20.726ZM10.3524 17.1188L15.2796 20.726L16.461 19.1123L11.5339 15.5051L10.3524 17.1188ZM6.60667 20.726L11.5339 17.1188L10.3524 15.5051L5.42523 19.1123L6.60667 20.726ZM3.52175 18.4985C2.92672 20.3438 5.04223 21.8714 6.60667 20.726L5.42523 19.1123L5.42523 19.1123L3.52175 18.4985ZM5.4078 12.6494L3.52175 18.4985L5.42523 19.1123L7.31129 13.2632L5.4078 12.6494ZM0.820488 10.1405L5.76882 13.7632L6.95026 12.1494L2.00192 8.52675L0.820488 10.1405ZM2.00192 6.52675C0.0681695 6.52675 -0.739816 8.9982 0.820488 10.1405L2.00192 8.52675V8.52675V6.52675ZM8.11032 6.52675H2.00192V8.52675H8.11032V6.52675ZM9.03965 1.38622L7.15857 7.21985L9.06206 7.83364L10.9431 2L9.03965 1.38622ZM43.8466 1.38622C43.2506 -0.462071 40.6356 -0.462072 40.0396 1.38621L41.9431 2V2L43.8466 1.38622ZM45.7277 7.21985L43.8466 1.38622L41.9431 2L43.8242 7.83364L45.7277 7.21985ZM50.8843 6.52675H44.7759V8.52675H50.8843V6.52675ZM52.0658 10.1405C53.6261 8.9982 52.8181 6.52675 50.8843 6.52675V8.52675V8.52675L52.0658 10.1405ZM47.1174 13.7632L52.0658 10.1405L50.8843 8.52675L45.936 12.1494L47.1174 13.7632ZM49.3645 18.4985L47.4785 12.6494L45.575 13.2632L47.461 19.1123L49.3645 18.4985ZM46.2796 20.726C47.844 21.8714 49.9595 20.3438 49.3645 18.4985L47.461 19.1123L46.2796 20.726ZM41.3524 17.1188L46.2796 20.726L47.461 19.1123L42.5339 15.5051L41.3524 17.1188ZM37.6067 20.726L42.5339 17.1188L41.3524 15.5051L36.4252 19.1123L37.6067 20.726ZM34.5217 18.4985C33.9267 20.3438 36.0422 21.8714 37.6067 20.726L36.4252 19.1123L36.4252 19.1123L34.5217 18.4985ZM36.4078 12.6494L34.5217 18.4985L36.4252 19.1123L38.3113 13.2632L36.4078 12.6494ZM31.8205 10.1405L36.7688 13.7632L37.9503 12.1494L33.0019 8.52675L31.8205 10.1405ZM33.0019 6.52675C31.0682 6.52675 30.2602 8.9982 31.8205 10.1405L33.0019 8.52675V8.52675V6.52675ZM39.1103 6.52675H33.0019V8.52675H39.1103V6.52675ZM40.0396 1.38622L38.1586 7.21985L40.0621 7.83364L41.9431 2L40.0396 1.38622ZM72.9431 2V2L74.8466 1.38622C74.2506 -0.462084 71.6356 -0.462059 71.0396 1.38621L72.9431 2ZM71.0621 7.83364L72.9431 2L71.0396 1.38622L69.1586 7.21985L71.0621 7.83364ZM64.0019 8.52675H70.1103V6.52675H64.0019V8.52675ZM64.0019 8.52675V8.52675V6.52675C62.0682 6.52675 61.2602 8.9982 62.8205 10.1405L64.0019 8.52675ZM68.9503 12.1494L64.0019 8.52675L62.8205 10.1405L67.7688 13.7632L68.9503 12.1494ZM67.4252 19.1123L69.3113 13.2632L67.4078 12.6494L65.5217 18.4985L67.4252 19.1123ZM67.4252 19.1123L67.4252 19.1123L65.5217 18.4985C64.9267 20.3438 67.0422 21.8714 68.6067 20.726L67.4252 19.1123ZM72.3524 15.5051L67.4252 19.1123L68.6067 20.726L73.5339 17.1188L72.3524 15.5051ZM78.461 19.1123L73.5339 15.5051L72.3524 17.1188L77.2796 20.726L78.461 19.1123ZM78.461 19.1123L78.461 19.1123L77.2796 20.726C78.844 21.8714 80.9595 20.3438 80.3645 18.4985L78.461 19.1123ZM76.575 13.2632L78.461 19.1123L80.3645 18.4985L78.4785 12.6494L76.575 13.2632ZM81.8843 8.52675L76.936 12.1494L78.1174 13.7632L83.0658 10.1405L81.8843 8.52675ZM81.8843 8.52675V8.52675L83.0658 10.1405C84.6261 8.99821 83.8181 6.52675 81.8843 6.52675V8.52675ZM75.7759 8.52675H81.8843V6.52675H75.7759V8.52675ZM72.9431 2L74.8242 7.83364L76.7277 7.21985L74.8466 1.38622L72.9431 2ZM105.847 1.38621C105.251 -0.462058 102.636 -0.462086 102.04 1.38622L103.943 2V2L105.847 1.38621ZM107.728 7.21985L105.847 1.38622L103.943 2L105.824 7.83364L107.728 7.21985ZM112.884 6.52675H106.776V8.52675H112.884V6.52675ZM114.066 10.1405C115.626 8.9982 114.818 6.52675 112.884 6.52675V8.52675L112.884 8.52675L114.066 10.1405ZM109.117 13.7632L114.066 10.1405L112.884 8.52675L107.936 12.1494L109.117 13.7632ZM111.365 18.4985L109.478 12.6494L107.575 13.2632L109.461 19.1123L111.365 18.4985ZM108.28 20.726C109.844 21.8714 111.96 20.3438 111.365 18.4985L109.461 19.1123L109.461 19.1123L108.28 20.726ZM103.352 17.1188L108.28 20.726L109.461 19.1123L104.534 15.5051L103.352 17.1188ZM99.6067 20.726L104.534 17.1188L103.352 15.5051L98.4252 19.1123L99.6067 20.726ZM96.5217 18.4985C95.9267 20.3438 98.0422 21.8714 99.6067 20.726L98.4252 19.1123H98.4252L96.5217 18.4985ZM98.4078 12.6494L96.5217 18.4985L98.4252 19.1123L100.311 13.2632L98.4078 12.6494ZM93.8205 10.1405L98.7688 13.7632L99.9503 12.1494L95.0019 8.52675L93.8205 10.1405ZM95.0019 6.52675C93.0682 6.52675 92.2602 8.9982 93.8205 10.1405L95.0019 8.52675V8.52675V6.52675ZM101.11 6.52675H95.0019V8.52675H101.11V6.52675ZM102.04 1.38622L100.159 7.21985L102.062 7.83364L103.943 2L102.04 1.38622ZM134.943 2.00001V2L136.847 1.38622C136.251 -0.462096 133.636 -0.462045 133.04 1.3862L134.943 2.00001ZM133.062 7.83364L134.943 2L133.04 1.38622L131.159 7.21985L133.062 7.83364ZM126.002 8.52675H132.11V6.52675H126.002V8.52675ZM126.002 8.52675V8.52675V6.52675C124.068 6.52675 123.26 8.9982 124.82 10.1405L126.002 8.52675ZM130.95 12.1494L126.002 8.52675L124.82 10.1405L129.769 13.7632L130.95 12.1494ZM129.425 19.1123L131.311 13.2632L129.408 12.6494L127.522 18.4985L129.425 19.1123ZM129.425 19.1123L127.522 18.4985C126.927 20.3438 129.042 21.8714 130.607 20.726L129.425 19.1123ZM134.352 15.5051L129.425 19.1123L130.607 20.726L135.534 17.1188L134.352 15.5051ZM140.461 19.1123L135.534 15.5051L134.352 17.1188L139.28 20.726L140.461 19.1123ZM140.461 19.1123V19.1123L139.28 20.726C140.844 21.8714 142.96 20.3438 142.365 18.4985L140.461 19.1123ZM138.575 13.2632L140.461 19.1123L142.365 18.4985L140.478 12.6494L138.575 13.2632ZM143.884 8.52675L138.936 12.1494L140.117 13.7632L145.066 10.1405L143.884 8.52675ZM143.884 8.52675V8.52675L145.066 10.1405C146.626 8.99821 145.818 6.52675 143.884 6.52675V8.52675ZM137.776 8.52675H143.884V6.52675H137.776V8.52675ZM134.943 2L136.824 7.83364L138.728 7.21985L136.847 1.38622L134.943 2Z" fill="white" mask="url(#path-1-outside-1_298_391)"/>
</svg>
