<svg width="34" height="34" viewBox="0 0 34 34" fill="none" xmlns="http://www.w3.org/2000/svg">
<path d="M18.7403 6.37559C17.958 6.36623 17.1781 6.46879 16.4217 6.68048C15.4105 6.97616 14.3424 6.97616 13.3312 6.68048C12.5748 6.46901 11.7949 6.36645 11.0126 6.37559C8.39151 6.37559 5.3125 8.28421 5.3125 12.9033C5.3125 17.7816 8.14669 18.7694 8.26766 21.9128C8.38863 25.0563 8.26766 28.6875 11.0068 28.6875C13.7459 28.6875 13.5011 24.2971 13.7431 23.0623C13.985 21.8275 14.875 21.9159 14.875 21.9159C14.875 21.9159 15.765 21.8275 16.0069 23.0623C16.2489 24.2971 16.0069 28.6875 18.7461 28.6875C21.4852 28.6875 21.3614 25.0563 21.4823 21.9128C21.6033 18.7694 24.4375 17.7816 24.4375 12.9033C24.4375 8.28421 21.3614 6.37559 18.7403 6.37559Z" stroke="#E73020" stroke-width="2" stroke-miterlimit="10"/>
<path d="M19.125 9.5625C17.9157 10.2506 16.418 10.625 14.875 10.625C13.332 10.625 11.8343 10.2506 10.625 9.5625" stroke="#FF8C82" stroke-width="2" stroke-miterlimit="10" stroke-linecap="round"/>
<path d="M23.375 4.25L23.375 2.125" stroke="#FF8C82" stroke-width="2" stroke-miterlimit="10" stroke-linecap="round"/>
<path d="M27.625 6.375L28.6875 5.3125" stroke="#FF8C82" stroke-width="2" stroke-miterlimit="10" stroke-linecap="round"/>
<path d="M28.6875 10.625L30.8125 10.625" stroke="#FF8C82" stroke-width="2" stroke-miterlimit="10" stroke-linecap="round"/>
<path d="M27.625 15.9375L28.6875 17" stroke="#FF8C82" stroke-width="2" stroke-miterlimit="10" stroke-linecap="round"/>
</svg>
