<svg width="55" height="18" viewBox="0 0 55 18" fill="none" xmlns="http://www.w3.org/2000/svg">
<path d="M50.9254 17.7402L50.4098 15.1307H44.6485L43.7319 17.7216L39.1142 17.7309C41.3125 12.38 43.5156 7.031 45.7233 1.68402C46.0992 0.777061 46.766 0.315465 47.7492 0.320104C48.5008 0.327063 49.7269 0.327062 51.4296 0.322423L55 17.7332L50.9254 17.7402ZM45.9456 11.5562H49.6581L48.2717 5.01495L45.9456 11.5562ZM16.1792 0.317784L20.8221 0.322423L13.6446 17.7425L8.94438 17.7379C7.76245 13.1366 6.59522 8.53138 5.44271 3.92242C5.21354 3.00387 4.75979 2.36134 3.88667 2.05747C3.10979 1.78608 1.815 1.36856 0 0.800258V0.324743H7.41813C8.70146 0.324743 9.45083 0.95335 9.69146 2.24304C9.93438 3.53505 10.544 6.82423 11.5248 12.1106L16.1792 0.317784ZM27.2021 0.322423L23.5308 17.7379L19.1125 17.7332L22.7792 0.317784L27.2021 0.322423ZM36.1625 0C37.4848 0 39.1508 0.417526 40.1088 0.800258L39.3342 4.41186C38.4679 4.05928 37.0425 3.58376 35.844 3.6C34.1023 3.63015 33.0252 4.3701 33.0252 5.0799C33.0252 6.23505 34.8952 6.81727 36.8202 8.07912C39.0179 9.51727 39.3067 10.8093 39.2792 12.2126C39.2494 15.126 36.8202 18 31.696 18C29.3585 17.9652 28.5152 17.7657 26.6085 17.0814L27.4152 13.3121C29.3563 14.1356 30.179 14.3977 31.8381 14.3977C33.3575 14.3977 34.6615 13.776 34.6729 12.6928C34.6821 11.9227 34.2146 11.5399 32.5096 10.5889C30.8046 9.63557 28.4121 8.31572 28.4442 5.66675C28.4831 2.27551 31.6571 0 36.1648 0H36.1625Z" fill="#9F9F9E"/>
</svg>
