<svg width="16" height="16" viewBox="0 0 16 16" fill="none" xmlns="http://www.w3.org/2000/svg">
<path d="M8 16C12.4183 16 16 12.4183 16 8C16 3.58172 12.4183 0 8 0C3.58172 0 0 3.58172 0 8C0 12.4183 3.58172 16 8 16Z" fill="#4D76A1"/>
<path fill-rule="evenodd" clip-rule="evenodd" d="M7.69693 11.5094H8.32506C8.32506 11.5094 8.51568 11.4875 8.61256 11.3844C8.70318 11.2875 8.70006 11.1094 8.70006 11.1094C8.70006 11.1094 8.68756 10.2656 9.07818 10.1437C9.46256 10.0219 9.95943 10.9562 10.4844 11.3187C10.8813 11.5906 11.1813 11.5312 11.1813 11.5312L12.5844 11.5125C12.5844 11.5125 13.3188 11.4687 12.9688 10.8906C12.9407 10.8437 12.7657 10.4625 11.9251 9.68437C11.0469 8.86874 11.1626 8.99999 12.2219 7.58749C12.8688 6.72812 13.1251 6.20312 13.0438 5.97812C12.9657 5.76249 12.4938 5.82187 12.4938 5.82187L10.9126 5.83124C10.9126 5.83124 10.7969 5.81562 10.7094 5.86562C10.6251 5.91562 10.5688 6.03437 10.5688 6.03437C10.5688 6.03437 10.3188 6.69999 9.98443 7.26562C9.28131 8.45937 9.00006 8.52187 8.88443 8.44999C8.61568 8.27499 8.68443 7.75624 8.68443 7.38437C8.68443 6.22812 8.85943 5.74374 8.34381 5.61874C8.17193 5.57812 8.04693 5.54999 7.60631 5.54687C7.04381 5.54062 6.56568 5.54687 6.29381 5.68124C6.11568 5.76874 5.97506 5.96562 6.05943 5.97499C6.16256 5.98749 6.40006 6.04062 6.52506 6.20937C6.68756 6.42812 6.68131 6.92499 6.68131 6.92499C6.68131 6.92499 6.77506 8.28749 6.46256 8.45624C6.25006 8.57187 5.95631 8.33437 5.33131 7.25312C5.00943 6.69687 4.76881 6.08437 4.76881 6.08437C4.76881 6.08437 4.72193 5.96874 4.63756 5.90937C4.53443 5.83437 4.39381 5.81249 4.39381 5.81249L2.89381 5.82187C2.89381 5.82187 2.66881 5.82812 2.58443 5.92499C2.51256 6.01249 2.57818 6.19374 2.57818 6.19374C2.57818 6.19374 3.75318 8.94374 5.08443 10.3281C6.31256 11.5937 7.69693 11.5094 7.69693 11.5094Z" fill="white"/>
</svg>
