<svg width="16" height="17" viewBox="0 0 16 17" fill="none" xmlns="http://www.w3.org/2000/svg">
<path d="M8 0C3.57333 0 0 3.55937 0 7.96875C0 9.775 0.586667 11.475 1.70667 12.8563L0.586667 16.2563C0.533333 16.4688 0.586667 16.6812 0.746667 16.8406C0.8 16.9469 0.96 17 1.06667 17C1.12 17 1.22667 17 1.28 16.9469L4.96 15.3C5.92 15.725 6.93333 15.9375 8 15.9375C12.4267 15.9375 16 12.3781 16 7.96875C16 3.55937 12.4267 0 8 0ZM12.64 10.8906C12.4267 11.5281 11.6267 12.0594 10.9333 12.1656C10.7733 12.2188 10.6133 12.2188 10.4 12.2188C9.97333 12.2188 9.33333 12.1125 8.21333 11.6344C6.93333 11.1031 5.65333 9.9875 4.64 8.55313V8.5C4.32 8.02188 3.73333 7.11875 3.73333 6.1625C3.73333 4.99375 4.32 4.40938 4.53333 4.14375C4.8 3.87813 5.17333 3.71875 5.6 3.71875C5.70667 3.71875 5.76 3.71875 5.86667 3.71875C6.24 3.71875 6.50667 3.825 6.77333 4.35625L6.98667 4.78125C7.14667 5.20625 7.36 5.68438 7.41333 5.7375C7.57333 6.05625 7.57333 6.32187 7.41333 6.5875C7.36 6.74687 7.25333 6.85313 7.14667 6.95938C7.09333 7.06563 7.04 7.11875 6.98667 7.11875C6.93333 7.17188 6.93333 7.17188 6.88 7.225C7.04 7.49063 7.36 7.96875 7.78667 8.34062C8.42667 8.925 8.90667 9.08437 9.17333 9.19062C9.28 9.08437 9.38667 8.87187 9.54667 8.7125L9.6 8.60625C9.86667 8.23438 10.2933 8.12813 10.72 8.2875C10.9333 8.39375 12.1067 8.925 12.1067 8.925L12.2133 8.97812C12.3733 9.08437 12.5867 9.1375 12.6933 9.35C12.9067 9.82812 12.7467 10.5188 12.64 10.8906Z" fill="#098100"/>
</svg>
