<svg width="34" height="33" viewBox="0 0 34 33" fill="none" xmlns="http://www.w3.org/2000/svg">
<g opacity="0.4">
<path d="M27.5754 15.7173H6.16265C2.75906 15.7173 0 18.4791 0 21.882V26.8354C0 30.2383 2.75906 32.9994 6.16265 32.9994H27.5754C30.9783 32.9994 33.7381 30.2383 33.7381 26.8354V21.882C33.7381 18.4791 30.9783 15.7173 27.5754 15.7173ZM10.6613 19.5735H8.67063V29.4651H6.74734V19.5735H4.75802V17.891H10.6613V19.5735ZM16.2847 29.4651H14.5788V28.5296C14.2617 28.8756 13.9349 29.1397 13.5937 29.3179C13.2526 29.5036 12.9231 29.5903 12.6025 29.5903C12.2063 29.5903 11.9119 29.4644 11.7103 29.2085C11.5122 28.9533 11.4111 28.575 11.4111 28.0639V20.9259H13.117V27.4765C13.117 27.6787 13.1549 27.8238 13.223 27.914C13.2966 28.0068 13.4135 28.0495 13.5738 28.0495C13.6976 28.0495 13.8572 27.9903 14.0491 27.8706C14.2424 27.7496 14.4185 27.5982 14.5788 27.4111V20.9252H16.2847V29.4651ZM22.4783 27.7021C22.4783 28.3054 22.3442 28.769 22.0766 29.0923C21.8104 29.4156 21.421 29.5745 20.9168 29.5745C20.5811 29.5745 20.2826 29.5139 20.0233 29.3888C19.7626 29.2649 19.517 29.0744 19.2935 28.8103V29.4644H17.5669V17.891H19.2935V21.6185C19.5246 21.3606 19.7688 21.1604 20.024 21.0263C20.2847 20.8894 20.5468 20.8234 20.8123 20.8234C21.3523 20.8234 21.7636 21.0036 22.0484 21.3675C22.3345 21.7314 22.4769 22.2645 22.4769 22.9633V27.7021H22.4783ZM28.3961 25.4012H25.1314V27.0101C25.1314 27.4586 25.1865 27.7709 25.2979 27.9449C25.4121 28.1196 25.604 28.2049 25.8771 28.2049C26.1605 28.2049 26.3565 28.1313 26.4707 27.9841C26.5808 27.8355 26.6399 27.5122 26.6399 27.0101V26.6214H28.3961V27.0596C28.3961 27.9346 28.1835 28.5943 27.7522 29.0393C27.3278 29.4802 26.6881 29.699 25.8379 29.699C25.0723 29.699 24.469 29.4658 24.0308 28.9967C23.594 28.5303 23.3712 27.883 23.3712 27.0603V23.2247C23.3712 22.4866 23.6147 21.8792 24.0982 21.4136C24.5804 20.9479 25.2016 20.7154 25.9658 20.7154C26.7479 20.7154 27.3484 20.9307 27.7674 21.3627C28.1863 21.7953 28.3961 22.4144 28.3961 23.224V25.4012Z" fill="white"/>
<path d="M25.8939 22.208C25.6215 22.208 25.4276 22.2844 25.3092 22.4439C25.1882 22.5939 25.1318 22.8505 25.1318 23.2089V24.0721H26.6403V23.2089C26.6403 22.8505 26.5797 22.5932 26.4601 22.4439C26.3452 22.285 26.1533 22.208 25.8939 22.208Z" fill="white"/>
<path d="M20.0071 22.1797C19.8861 22.1797 19.7636 22.2065 19.646 22.2622C19.5263 22.3166 19.4094 22.4067 19.2938 22.5236V27.8429C19.4307 27.9805 19.5662 28.0864 19.6983 28.147C19.8297 28.2055 19.9659 28.2385 20.111 28.2385C20.3208 28.2385 20.4735 28.1779 20.5719 28.0555C20.6689 27.9344 20.7184 27.7411 20.7184 27.4681V23.0581C20.7184 22.7678 20.6606 22.5504 20.5396 22.4012C20.4144 22.254 20.2369 22.1797 20.0071 22.1797Z" fill="white"/>
<path d="M8.96552 12.7518H11.1282V7.46204L13.6465 0H11.448L10.1094 5.09714H9.97325L8.56793 0H6.38943L8.96552 7.70005V12.7518Z" fill="white"/>
<path d="M16.5783 12.9892C17.4519 12.9892 18.137 12.7601 18.6364 12.302C19.1323 11.8418 19.3806 11.2138 19.3806 10.409V5.54986C19.3806 4.83378 19.1268 4.24428 18.6212 3.78959C18.1122 3.33628 17.4601 3.10791 16.6649 3.10791C15.7913 3.10791 15.0959 3.3239 14.5786 3.7552C14.0627 4.18649 13.8034 4.765 13.8034 5.4962V10.3718C13.8034 11.1718 14.0558 11.8047 14.56 12.2793C15.0642 12.7519 15.7384 12.9892 16.5783 12.9892ZM15.7817 5.42466C15.7817 5.22037 15.8553 5.05528 15.9991 4.92596C16.1483 4.79939 16.3375 4.73817 16.5728 4.73817C16.8266 4.73817 17.0322 4.79939 17.1891 4.92596C17.3452 5.05528 17.423 5.22037 17.423 5.42466V10.55C17.423 10.8011 17.3466 11.0006 17.1918 11.1443C17.0384 11.2888 16.8321 11.3596 16.5728 11.3596C16.3189 11.3596 16.1229 11.2908 15.9853 11.1464C15.8498 11.0054 15.781 10.8073 15.781 10.5493L15.7817 5.42466Z" fill="white"/>
<path d="M22.2803 12.8902C22.6414 12.8902 23.0122 12.787 23.3939 12.5889C23.7798 12.3881 24.1492 12.0944 24.5007 11.7112V12.7533H26.422V3.34668H24.5007V10.4868C24.3219 10.6911 24.1231 10.8589 23.9098 10.9924C23.6925 11.1245 23.5136 11.1905 23.3726 11.1905C23.1924 11.1905 23.0596 11.141 22.9819 11.0385C22.9028 10.9401 22.8581 10.7791 22.8581 10.5583V3.34668H20.9396V11.2084C20.9396 11.769 21.0524 12.1879 21.2753 12.4658C21.5023 12.7478 21.8338 12.8902 22.2803 12.8902Z" fill="white"/>
</g>
</svg>
